<?xml version="1.0" encoding="UTF-8" standalone="no"?>
<!-- Created with Inkscape (http://www.inkscape.org/) -->

<svg
   width="141.82726mm"
   height="49.664173mm"
   viewBox="0 0 141.82726 49.664173"
   version="1.1"
   id="svg1"
   xml:space="preserve"
   xmlns:inkscape="http://www.inkscape.org/namespaces/inkscape"
   xmlns:sodipodi="http://sodipodi.sourceforge.net/DTD/sodipodi-0.dtd"
   xmlns:xlink="http://www.w3.org/1999/xlink"
   xmlns="http://www.w3.org/2000/svg"
   xmlns:svg="http://www.w3.org/2000/svg"><sodipodi:namedview
     id="namedview1"
     pagecolor="#ffffff"
     bordercolor="#000000"
     borderopacity="0.25"
     inkscape:showpageshadow="2"
     inkscape:pageopacity="0.0"
     inkscape:pagecheckerboard="0"
     inkscape:deskcolor="#d1d1d1"
     inkscape:document-units="mm" /><defs
     id="defs1"><linearGradient
       id="linearGradient7"
       inkscape:collect="always"><stop
         style="stop-color:#f9f9f9;stop-opacity:1"
         offset="0"
         id="stop7" /><stop
         style="stop-color:#cccccc;stop-opacity:1"
         offset="0.55351931"
         id="stop9" /><stop
         style="stop-color:#f9f9f9;stop-opacity:1"
         offset="1"
         id="stop8" /></linearGradient><linearGradient
       id="linearGradient1"
       inkscape:collect="always"><stop
         style="stop-color:#f9f9f9;stop-opacity:1"
         offset="0"
         id="stop1" /><stop
         style="stop-color:#999999;stop-opacity:1"
         offset="1"
         id="stop2" /></linearGradient><linearGradient
       inkscape:collect="always"
       xlink:href="#linearGradient1"
       id="linearGradient2"
       x1="106.07143"
       y1="111.6139"
       x2="154.04247"
       y2="170.09653"
       gradientUnits="userSpaceOnUse"
       gradientTransform="matrix(0.5,0,0,0.5,103.73894,32.924494)" /><linearGradient
       inkscape:collect="always"
       xlink:href="#linearGradient3"
       id="linearGradient6"
       x1="62.833466"
       y1="123.47018"
       x2="136.32762"
       y2="185.65755"
       gradientUnits="userSpaceOnUse" /><linearGradient
       id="linearGradient3"
       inkscape:collect="always"><stop
         style="stop-color:#f2f2f2;stop-opacity:1;"
         offset="0"
         id="stop3" /><stop
         style="stop-color:#f2f2f2;stop-opacity:0;"
         offset="1"
         id="stop4" /></linearGradient><linearGradient
       inkscape:collect="always"
       xlink:href="#linearGradient3"
       id="linearGradient5"
       x1="62.833466"
       y1="123.47018"
       x2="233.54289"
       y2="172.2979"
       gradientUnits="userSpaceOnUse" /><linearGradient
       inkscape:collect="always"
       xlink:href="#linearGradient3"
       id="linearGradient4"
       x1="107.67976"
       y1="153.58304"
       x2="200.78479"
       y2="192.6779"
       gradientUnits="userSpaceOnUse" /><linearGradient
       inkscape:collect="always"
       xlink:href="#linearGradient7"
       id="linearGradient8"
       x1="135.6826"
       y1="78.85537"
       x2="135.81773"
       y2="108.51905"
       gradientUnits="userSpaceOnUse"
       gradientTransform="matrix(0.61109128,0,0,1,52.40132,0)" /></defs><g
     inkscape:label="Layer 1"
     inkscape:groupmode="layer"
     id="layer1"
     transform="translate(-43.084935,-61.97748)"><g
       id="g9"><path
         style="fill:url(#linearGradient2);fill-opacity:1;stroke-width:0.5"
         d="m 144.03146,105.75418 v -3.74134 h 0.4961 0.49609 v 3.33535 3.33535 l 1.67018,0.0242 c 0.9186,0.0133 1.72114,0.0481 1.78342,0.0773 0.13773,0.0645 0.20747,0.26088 0.15329,0.4316 -0.022,0.0694 -0.091,0.15057 -0.15329,0.18037 -0.0623,0.0298 -1.08806,0.0642 -2.27951,0.0764 l -2.16628,0.0221 z m 5.93646,3.55124 c -0.11367,-0.25996 -0.11455,-5.00203 -0.001,-5.25859 0.0656,-0.14814 0.12323,-0.18191 0.31056,-0.18191 0.20948,0 0.23619,0.0221 0.29892,0.24805 0.0924,0.33263 0.0924,4.79368 0,5.1263 -0.0627,0.22588 -0.0894,0.24805 -0.29892,0.24805 -0.18757,0 -0.24472,-0.0336 -0.30958,-0.1819 z m 3.43161,0.0888 c -0.89952,-0.33465 -1.50828,-1.6657 -1.40844,-3.07955 0.0869,-1.23061 0.51522,-1.98806 1.35709,-2.39993 0.407,-0.19912 0.4891,-0.21516 1.10125,-0.21516 0.60194,0 0.68921,0.0163 0.96985,0.18129 0.44802,0.26337 0.71422,0.50448 0.92643,0.83908 0.2359,0.37199 0.24211,0.57807 0.0204,0.67907 -0.29487,0.13435 -0.62121,-5e-4 -0.90217,-0.37301 -0.13578,-0.17996 -0.34518,-0.37964 -0.46535,-0.44371 -0.24799,-0.13223 -0.81547,-0.15758 -1.19122,-0.0532 -0.55346,0.15371 -0.88186,0.90935 -0.87561,2.01477 0.005,0.76021 0.13579,1.29374 0.43455,1.76327 0.22993,0.36135 0.51743,0.51876 0.94752,0.51876 0.42472,0 0.66075,-0.1349 1.16623,-0.66656 0.37531,-0.39473 0.46703,-0.45792 0.66477,-0.45792 0.42243,0 0.50228,0.25996 0.21369,0.69572 -0.26077,0.39375 -0.55196,0.68437 -0.87941,0.8777 -0.26277,0.15513 -0.37256,0.17524 -1.05834,0.19389 -0.54766,0.0149 -0.83795,-0.006 -1.02129,-0.0745 z m 5.4957,0.0129 c -0.32346,-0.0858 -0.89494,-0.60855 -1.1226,-1.02684 -0.50444,-0.92681 -0.50918,-2.41752 -0.0108,-3.40098 0.19696,-0.38868 0.69172,-0.94292 0.98501,-1.10343 0.2997,-0.16401 1.79925,-0.15693 2.23329,0.0106 0.72042,0.27798 1.43677,1.57605 1.4391,2.60776 l 0.001,0.34726 h -2.05352 -2.05352 l 0.0415,0.24805 c 0.14995,0.8967 0.42361,1.35906 0.96364,1.62817 0.57964,0.28885 1.11231,0.20621 1.83041,-0.28395 0.42381,-0.28929 0.88157,-0.41868 0.97075,-0.27438 0.0259,0.0419 0.009,0.22517 -0.0377,0.4072 -0.10737,0.41892 -0.29007,0.53895 -1.15394,0.75809 -0.68643,0.17413 -1.55423,0.20936 -2.03236,0.0825 z m 2.42228,-3.49173 c 0.1202,-0.12882 0.0517,-0.37972 -0.23485,-0.8599 -0.28115,-0.47116 -0.523,-0.59507 -1.16179,-0.59521 -0.26492,-5e-5 -0.57969,0.0409 -0.69948,0.0909 -0.4202,0.17558 -0.95012,1.03666 -0.79212,1.28715 0.11108,0.17609 0.32866,0.20192 1.59072,0.1888 0.97411,-0.0101 1.22267,-0.0315 1.29752,-0.11174 z m 2.41135,3.38997 c -0.1105,-0.26127 -0.11282,-5.00635 -0.003,-5.25859 0.0644,-0.14722 0.12242,-0.1819 0.30455,-0.1819 0.26658,0 0.3458,0.0803 0.40806,0.41341 0.0255,0.13643 0.0835,0.24805 0.1289,0.24805 0.0454,0 0.21496,-0.11656 0.37681,-0.25903 0.45629,-0.40164 0.81706,-0.56167 1.33187,-0.59076 0.56934,-0.0322 0.93562,0.10032 1.32587,0.4796 0.42065,0.40882 0.45102,0.60191 0.46127,2.93201 0.01,2.2258 -0.011,2.34899 -0.40206,2.38677 -0.18084,0.0175 -0.22514,-0.007 -0.28193,-0.15648 -0.037,-0.0975 -0.0943,-1.02953 -0.1272,-2.07125 -0.0329,-1.04172 -0.0933,-2.00561 -0.1341,-2.14198 -0.16457,-0.54938 -0.54867,-0.74589 -1.31031,-0.67038 -1.00235,0.0994 -1.20572,0.56741 -1.3387,3.08069 -0.071,1.34184 -0.14379,1.82951 -0.28676,1.92112 -0.17124,0.10974 -0.37694,0.0502 -0.45369,-0.13128 z m 6.81228,0.11494 c -0.20823,-0.0331 -0.46124,-0.10329 -0.56224,-0.15604 -0.35441,-0.1851 -0.74588,-0.72594 -0.74588,-1.03048 0,-0.30551 0.84881,-0.0567 1.17918,0.34559 0.1582,0.19266 0.70976,0.3286 1.22361,0.3016 0.88812,-0.0467 1.37926,-0.44614 1.26928,-1.03236 -0.0669,-0.35662 -0.27488,-0.5035 -1.0962,-0.77418 -1.44342,-0.47571 -1.95735,-0.75151 -2.2129,-1.18758 -0.18827,-0.32125 -0.21833,-0.77299 -0.0744,-1.11755 0.14493,-0.34687 0.66278,-0.75422 1.15019,-0.90477 1.01598,-0.3138 2.12018,-0.0566 2.84415,0.66242 0.24646,0.24479 0.26335,0.33197 0.094,0.48522 -0.19414,0.17569 -0.5678,0.1393 -0.81931,-0.0798 -0.36442,-0.31744 -0.64584,-0.42634 -1.18425,-0.45829 -0.59899,-0.0356 -0.9316,0.057 -1.11111,0.30908 -0.21033,0.29538 -0.22948,0.48661 -0.0692,0.69044 0.18738,0.23821 0.52314,0.40495 1.49818,0.74397 0.94594,0.32891 1.44669,0.58635 1.63298,0.83954 0.0921,0.12514 0.14295,0.31741 0.16164,0.61093 0.0587,0.92219 -0.10765,1.27697 -0.74511,1.58885 -0.3139,0.15358 -0.45073,0.17612 -1.20413,0.1984 -0.46748,0.0138 -1.02035,-0.002 -1.22858,-0.035 z m 5.70132,-0.0307 c -0.89452,-0.28729 -1.46695,-1.40072 -1.46188,-2.84351 0.006,-1.63538 0.59672,-2.50144 1.91964,-2.81321 0.80916,-0.19069 1.87398,0.10506 2.31809,0.64384 0.36763,0.446 0.79508,1.82621 0.69235,2.23554 -0.0513,0.20445 -0.18735,0.2204 -2.11019,0.24743 -1.77321,0.0249 -1.81901,0.037 -1.81901,0.48235 0,0.8292 0.73599,1.51112 1.62058,1.5015 0.49354,-0.005 0.68631,-0.0794 1.08727,-0.41748 0.53012,-0.447 1.06278,-0.41075 0.86817,0.0591 -0.11832,0.28565 -0.59604,0.71854 -0.93018,0.84289 -0.41503,0.15446 -1.77618,0.19281 -2.18484,0.0616 z m 2.35282,-3.40899 c 0.15232,-0.0579 0.1699,-0.092 0.12789,-0.24805 -0.0268,-0.0995 -0.0707,-0.29338 -0.0976,-0.43085 -0.0631,-0.32249 -0.21928,-0.49275 -0.62821,-0.68483 -0.75584,-0.35501 -1.73727,-0.11486 -2.06525,0.50535 -0.20354,0.3849 -0.18427,0.72354 0.0478,0.84034 0.20472,0.10303 2.35285,0.11785 2.61538,0.0181 z m -28.64001,-3.51946 c -0.14463,-0.20648 -0.13037,-0.55319 0.0293,-0.71288 0.15854,-0.15855 0.41431,-0.17155 0.55751,-0.0284 0.12472,0.12472 0.14194,0.6915 0.0246,0.80887 -0.13615,0.13615 -0.4966,0.0963 -0.61141,-0.0676 z m -7.97433,-4.38398 v -1.091406 h 1.2237 1.2237 v 1.091406 1.091405 h -1.2237 -1.2237 z m 5.49011,-7.408336 v -8.49974 h -1.52136 -1.52135 v 4.134115 4.134115 h -1.2237 -1.2237 v 1.02377 1.02377 l 1.20716,0.01805 1.20717,0.01805 v 1.091405 1.09141 l -1.20717,0.01805 -1.20716,0.01805 v 1.089915 1.089915 h -1.2237 -1.22369 v -1.09141 -1.091405 h 1.22369 1.2237 v -1.12448 -1.12448 h -1.2237 -1.22369 v -7.573695 -7.5737 h 9.62421 9.62422 v 7.56682 7.566825 l -0.97565,0.04365 c -1.16768,0.05226 -1.32409,0.07779 -1.36427,0.22273 -0.017,0.06114 -0.0508,0.53532 -0.0753,1.05374 l -0.0445,0.942575 h 1.22986 1.22985 v 1.091405 1.09141 h -1.22369 -1.2237 v -1.09141 -1.091405 h -1.22646 -1.22645 l 0.035,-0.479555 c 0.0193,-0.26376 0.0527,-0.737555 0.0744,-1.05288 l 0.0393,-0.573325 0.30871,-0.036 c 0.16979,-0.0198 0.68822,-0.05501 1.15207,-0.07826 l 0.84336,-0.0423 v -0.97864 -0.978645 l -0.51263,-0.03895 c -0.28195,-0.02145 -0.79813,-0.05747 -1.14708,-0.08011 l -0.63445,-0.04115 -0.0434,-1.82847 c -0.0239,-1.005655 -0.0435,-2.575475 -0.0436,-3.488485 -8e-5,-0.91301 -0.0195,-1.932485 -0.0431,-2.265495 l -0.043,-0.605475 h -1.37916 -1.37915 v 8.49974 8.499741 h -1.81901 -1.81901 z m 6.41614,7.408336 v -1.091406 h 1.2237 1.2237 v 1.091406 1.091405 h -1.2237 -1.2237 z m 7.73906,-9.822646 V 77.340439 h 2.41433 2.41432 v 10.914065 10.914061 h -2.41432 -2.41433 z m 15.34584,9.789586 v -1.124481 h -1.09141 -1.0914 v -1.09141 -1.091405 h 1.0914 1.09141 v -1.12448 -1.12448 h -1.16208 -1.16208 l 0.0373,-2.36471 c 0.0205,-1.300595 0.0543,-3.622315 0.0752,-5.159375 l 0.038,-2.794665 h -2.74962 -2.74962 v -2.414325 -2.41432 h 7.8065 7.8065 l -0.0361,1.20716 c -0.10265,3.425915 -0.10624,3.48291 -0.22149,3.51522 -0.0598,0.01675 -1.26215,0.05101 -2.67188,0.07611 l -2.56315,0.04565 v 4.126375 4.12638 h -1.23083 -1.23084 l 0.0425,0.677995 c 0.0233,0.3729 0.0587,0.816015 0.0785,0.984705 l 0.036,0.30671 1.13583,0.05709 1.13584,0.0571 v 1.091405 1.09141 l -1.14101,0.05733 -1.14102,0.05733 v 1.008115 1.008115 l 0.40658,0.0425 c 0.22362,0.02335 0.58824,0.04275 0.81028,0.04305 0.22204,3.15e-4 0.55998,0.01935 0.75098,0.0423 l 0.34726,0.0417 v 1.082196 1.08219 h -1.22369 -1.2237 z"
         id="path1" /><g
         id="g6"
         inkscape:export-filename="logo.svg"
         inkscape:export-xdpi="96"
         inkscape:export-ydpi="96"
         transform="matrix(0.70243818,0,0,0.76601896,12.225684,-0.74323501)"><text
           xml:space="preserve"
           style="font-size:56.3507px;font-family:'Vladimir Script';-inkscape-font-specification:'Vladimir Script';fill:url(#linearGradient6);fill-opacity:1;stroke-width:4.69588"
           x="46.951851"
           y="136.00662"
           id="text1"
           transform="scale(1.183216,0.84515423)"><tspan
             sodipodi:role="line"
             id="tspan1"
             style="font-style:italic;font-variant:normal;font-weight:normal;font-stretch:normal;font-family:'Times New Roman';-inkscape-font-specification:'Times New Roman,  Italic';fill:url(#linearGradient6);fill-opacity:1;stroke-width:4.69588"
             x="46.951851"
             y="136.00662">f</tspan></text><text
           xml:space="preserve"
           style="font-size:56.3507px;font-family:'Vladimir Script';-inkscape-font-specification:'Vladimir Script';fill:url(#linearGradient5);fill-opacity:1;stroke-width:4.69588"
           x="55.614628"
           y="143.64508"
           id="text2"
           transform="scale(1.183216,0.84515423)"><tspan
             sodipodi:role="line"
             id="tspan2"
             style="font-style:normal;font-variant:normal;font-weight:normal;font-stretch:normal;font-family:'Times New Roman';-inkscape-font-specification:'Times New Roman, ';fill:url(#linearGradient5);fill-opacity:1;stroke-width:4.69588"
             x="55.614628"
             y="143.64508">arm</tspan></text><text
           xml:space="preserve"
           style="font-size:53.3253px;font-family:'Vladimir Script';-inkscape-font-specification:'Vladimir Script';letter-spacing:-0.0125189px;word-spacing:-0.0125189px;fill:url(#linearGradient4);fill-opacity:1;stroke-width:4.44376"
           x="85.750671"
           y="163.56284"
           id="text3"
           transform="scale(1.1196898,0.8931045)"><tspan
             sodipodi:role="line"
             id="tspan3"
             style="font-style:normal;font-variant:normal;font-weight:normal;font-stretch:normal;font-family:'Times New Roman';-inkscape-font-specification:'Times New Roman, ';letter-spacing:-0.0125189px;word-spacing:-0.0125189px;fill:url(#linearGradient4);fill-opacity:1;stroke-width:4.44376"
             x="85.750671"
             y="163.56284"
             dx="-0.028389316"
             dy="-0.018926211"
             rotate="0 0 0 0">vss</tspan></text></g><rect
         style="fill:url(#linearGradient8);fill-opacity:1;stroke-width:0.206831"
         id="rect2"
         width="1.1679158"
         height="32.490345"
         x="134.73938"
         y="77.976837" /></g></g></svg>
