<?xml version="1.0" encoding="UTF-8" standalone="no"?>
<!-- Created with Inkscape (http://www.inkscape.org/) -->

<svg
   width="20.137554mm"
   height="26.60453mm"
   viewBox="0 0 20.137554 26.60453"
   version="1.1"
   id="svg1"
   xml:space="preserve"
   xmlns:inkscape="http://www.inkscape.org/namespaces/inkscape"
   xmlns:sodipodi="http://sodipodi.sourceforge.net/DTD/sodipodi-0.dtd"
   xmlns:xlink="http://www.w3.org/1999/xlink"
   xmlns="http://www.w3.org/2000/svg"
   xmlns:svg="http://www.w3.org/2000/svg"><sodipodi:namedview
     id="namedview1"
     pagecolor="#ffffff"
     bordercolor="#000000"
     borderopacity="0.25"
     inkscape:showpageshadow="2"
     inkscape:pageopacity="0.0"
     inkscape:pagecheckerboard="0"
     inkscape:deskcolor="#d1d1d1"
     inkscape:document-units="mm"
     showguides="true"><sodipodi:guide
       position="-98.265259,393.45478"
       orientation="1,0"
       id="guide6"
       inkscape:locked="false" /></sodipodi:namedview><defs
     id="defs1"><linearGradient
       id="linearGradient13"
       inkscape:collect="always"><stop
         style="stop-color:#f9f9f9;stop-opacity:1;"
         offset="0"
         id="stop13" /><stop
         style="stop-color:#f9f9f9;stop-opacity:0;"
         offset="1"
         id="stop14" /></linearGradient><linearGradient
       inkscape:collect="always"
       xlink:href="#linearGradient13"
       id="linearGradient14"
       x1="114.93829"
       y1="165.07599"
       x2="141.4937"
       y2="177.98206"
       gradientUnits="userSpaceOnUse" /></defs><g
     inkscape:label="Layer 1"
     inkscape:groupmode="layer"
     id="layer1"
     transform="translate(-111.64432,-156.32269)"><path
       style="fill:url(#linearGradient14);fill-opacity:1"
       d="m 112.17052,182.77285 c -0.0366,-0.0849 -0.0852,-0.65756 -0.10786,-1.27261 -0.0463,-1.25363 0.0847,-2.06041 0.46874,-2.88774 l 0.22199,-0.47824 -0.30768,-0.62419 c -0.5708,-1.15799 -0.77278,-2.47915 -0.58949,-3.85583 0.099,-0.74351 0.38764,-1.73892 0.64876,-2.23729 0.12262,-0.23403 0.11355,-0.27543 -0.16215,-0.74087 -1.22852,-2.07394 -0.80025,-4.97393 0.99945,-6.76781 l 0.64423,-0.64213 -0.10101,-0.81896 c -0.27874,-2.25999 0.27202,-4.68031 1.27551,-5.6053 1.3963,-1.28706 3.00007,-0.0945 3.52314,2.6198 0.0988,0.51251 0.19123,0.94713 0.20547,0.96583 0.0142,0.0187 0.11698,-0.0257 0.2283,-0.0986 0.11131,-0.0729 0.49951,-0.24034 0.86264,-0.37201 1.29506,-0.46957 2.74494,-0.38839 4.03173,0.22574 0.31184,0.14883 0.57676,0.25716 0.58872,0.24075 0.012,-0.0164 0.10256,-0.44917 0.20132,-0.96168 0.52308,-2.7143 2.12685,-3.90686 3.52314,-2.6198 1.0035,0.92499 1.55426,3.34531 1.27552,5.6053 l -0.10101,0.81896 0.6416,0.63966 c 0.77757,0.77523 1.15179,1.44661 1.44034,2.58411 0.37156,1.46473 0.22563,2.81146 -0.44062,4.06615 -0.29642,0.55825 -0.3018,0.58549 -0.16687,0.84641 0.27212,0.52622 0.55576,1.50006 0.65584,2.25177 0.18329,1.37668 -0.0187,2.69784 -0.58949,3.85583 l -0.30769,0.62419 0.222,0.47824 c 0.38405,0.82733 0.51501,1.63411 0.46874,2.88774 -0.0227,0.61505 -0.0712,1.18772 -0.10786,1.27261 -0.0559,0.12967 -0.18647,0.15434 -0.81646,0.15434 h -0.74987 l 0.0548,-0.33073 c 0.25172,-1.52062 0.13169,-2.62835 -0.39436,-3.63949 -0.19065,-0.36647 -0.34652,-0.78395 -0.34637,-0.92773 1.7e-4,-0.15832 0.14013,-0.47013 0.35485,-0.79059 0.9959,-1.48632 1.00964,-3.61495 0.0349,-5.40495 -0.38951,-0.71527 -0.38308,-0.92985 0.0449,-1.49948 0.55543,-0.73921 0.73767,-1.32101 0.73796,-2.35599 2.1e-4,-0.73996 -0.0368,-0.97793 -0.22994,-1.47817 -0.41991,-1.08761 -1.18039,-1.94401 -2.13414,-2.40332 -0.45842,-0.22077 -0.64168,-0.25672 -1.38003,-0.27071 -0.46827,-0.009 -0.88886,-0.0393 -0.93465,-0.0676 -0.0458,-0.0283 -0.23715,-0.31461 -0.42525,-0.63625 -0.40427,-0.69128 -0.9472,-1.17185 -1.7464,-1.54584 -0.80876,-0.37847 -1.57624,-0.49925 -2.28134,-0.35901 -1.21172,0.241 -2.35184,1.04787 -2.87948,2.03784 -0.15649,0.29359 -0.31196,0.53763 -0.34549,0.54231 -0.0335,0.005 -0.43801,0.0151 -0.89883,0.0232 -0.74268,0.013 -0.90598,0.0468 -1.43771,0.29767 -1.1153,0.52617 -2.0046,1.67445 -2.27566,2.93838 -0.0565,0.26334 -0.0821,0.81116 -0.0578,1.23683 0.0502,0.88084 0.31363,1.56481 0.81733,2.12235 0.39388,0.43598 0.39505,0.70374 0.006,1.41779 -0.97476,1.79 -0.96102,3.91863 0.0349,5.40495 0.21472,0.32046 0.35468,0.63227 0.35485,0.79059 1.5e-4,0.14378 -0.15572,0.56126 -0.34638,0.92773 -0.52605,1.01114 -0.64607,2.11887 -0.39435,3.63949 l 0.0547,0.33073 h -0.74987 c -0.62999,0 -0.76051,-0.0247 -0.81646,-0.15434 z m 15.97656,-21.01634 c 0.12809,-1.54131 -0.46357,-3.87654 -0.98217,-3.87654 -0.1686,0 -0.55131,0.67841 -0.75815,1.34392 -0.0944,0.30374 -0.21699,1.01482 -0.27243,1.58018 -0.13374,1.36379 -0.0933,1.43537 0.85652,1.51565 0.37132,0.0314 0.7415,0.0945 0.82262,0.14032 0.2219,0.12525 0.27384,0.0157 0.33361,-0.70353 z m -11.57854,0.55929 c 0.8667,-0.076 0.91523,-0.16965 0.78362,-1.51173 -0.0554,-0.56536 -0.17803,-1.27644 -0.27243,-1.58018 -0.20684,-0.66551 -0.58955,-1.34392 -0.75816,-1.34392 -0.53045,0 -1.13859,2.49163 -0.97682,4.00221 l 0.0645,0.60274 0.2786,-0.0581 c 0.15324,-0.032 0.54952,-0.0819 0.88064,-0.11097 z m 3.45491,11.40732 c -1.76231,-0.57688 -2.68473,-1.98483 -2.29827,-3.50798 0.41293,-1.62749 2.02857,-2.72198 4.01806,-2.72198 1.9895,0 3.60514,1.09449 4.01807,2.72198 0.34657,1.36595 -0.33157,2.6103 -1.80232,3.30715 -0.57624,0.27303 -0.60445,0.27704 -2.08345,0.29654 -1.04576,0.0138 -1.60603,-0.0152 -1.85209,-0.0957 z m 3.2528,-1.02291 c 0.65813,-0.22643 0.98957,-0.47133 1.2997,-0.96036 0.6651,-1.04875 -0.0486,-2.46045 -1.52769,-3.02171 -1.20309,-0.45653 -2.69976,-0.2079 -3.59529,0.59726 -0.82448,0.74128 -1.0293,1.65674 -0.54243,2.42445 0.52419,0.82657 1.24601,1.11736 2.79685,1.12673 0.84191,0.005 1.17238,-0.03 1.56886,-0.16637 z m -1.89247,-1.02587 c -0.0641,-0.0772 -0.10692,-0.28216 -0.0953,-0.4555 0.0171,-0.25356 -0.0312,-0.36307 -0.2471,-0.56024 -0.14758,-0.13479 -0.26832,-0.30401 -0.26832,-0.37604 0,-0.32109 0.53888,-0.53954 0.76734,-0.31108 0.0706,0.0706 0.1846,0.0654 0.41843,-0.0191 0.38762,-0.14016 0.60896,-0.0382 0.64949,0.29928 0.0204,0.16956 -0.0422,0.27852 -0.24693,0.42986 -0.24451,0.18077 -0.26834,0.23751 -0.22,0.52366 0.0396,0.23434 0.0153,0.35985 -0.0901,0.46523 -0.18363,0.18363 -0.51682,0.18561 -0.66757,0.004 z m -5.1781,-1.9859 c -0.31195,-0.0919 -0.63515,-0.51869 -0.63572,-0.83954 -5.4e-4,-0.30676 0.24322,-0.79722 0.49442,-0.99481 0.38145,-0.30006 0.86792,-0.25062 1.24507,0.12652 0.28679,0.2868 0.30749,0.3427 0.26536,0.71654 -0.0348,0.30839 -0.11664,0.47551 -0.34194,0.69796 -0.3402,0.33589 -0.61561,0.41454 -1.02719,0.29333 z m 10.43236,0.0132 c -0.36135,-0.15045 -0.67994,-0.5926 -0.72684,-1.00873 -0.0416,-0.36878 -0.0201,-0.42633 0.26584,-0.71226 0.37715,-0.37714 0.86361,-0.42658 1.24507,-0.12652 0.2512,0.19759 0.49495,0.68805 0.49442,0.99481 -6.1e-4,0.3462 -0.32059,0.74381 -0.67859,0.84322 -0.38463,0.10681 -0.36681,0.10653 -0.5999,0.009 z"
       id="path13" /></g></svg>
