<?xml version="1.0" encoding="UTF-8" standalone="no"?>
<!-- Created with Inkscape (http://www.inkscape.org/) -->

<svg
   width="62.616753mm"
   height="42.734512mm"
   viewBox="0 0 62.616753 42.734512"
   version="1.1"
   id="svg1"
   inkscape:export-filename="sig-logo.svg"
   inkscape:export-xdpi="96"
   inkscape:export-ydpi="96"
   inkscape:version="1.3.2 (091e20e, 2023-11-25, custom)"
   sodipodi:docname="drawing.svg"
   xml:space="preserve"
   xmlns:inkscape="http://www.inkscape.org/namespaces/inkscape"
   xmlns:sodipodi="http://sodipodi.sourceforge.net/DTD/sodipodi-0.dtd"
   xmlns:xlink="http://www.w3.org/1999/xlink"
   xmlns="http://www.w3.org/2000/svg"
   xmlns:svg="http://www.w3.org/2000/svg"><sodipodi:namedview
     id="namedview1"
     pagecolor="#ffffff"
     bordercolor="#000000"
     borderopacity="0.25"
     inkscape:showpageshadow="2"
     inkscape:pageopacity="0.0"
     inkscape:pagecheckerboard="0"
     inkscape:deskcolor="#d1d1d1"
     inkscape:document-units="mm"
     inkscape:zoom="1.9578168"
     inkscape:cx="524.5639"
     inkscape:cy="416.5354"
     inkscape:window-width="1920"
     inkscape:window-height="991"
     inkscape:window-x="-9"
     inkscape:window-y="-9"
     inkscape:window-maximized="1"
     inkscape:current-layer="layer1" /><defs
     id="defs1"><linearGradient
       id="linearGradient4"
       inkscape:collect="always"><stop
         style="stop-color:#f9f9f9;stop-opacity:1;"
         offset="0"
         id="stop7" /><stop
         style="stop-color:#f9f9f9;stop-opacity:0;"
         offset="1"
         id="stop8" /></linearGradient><linearGradient
       inkscape:collect="always"
       xlink:href="#linearGradient1"
       id="linearGradient2"
       x1="106.07143"
       y1="111.6139"
       x2="154.04247"
       y2="170.09653"
       gradientUnits="userSpaceOnUse"
       gradientTransform="matrix(0.5,0,0,0.5,103.73894,32.924494)" /><linearGradient
       id="linearGradient1"
       inkscape:collect="always"><stop
         style="stop-color:#f9f9f9;stop-opacity:1"
         offset="0"
         id="stop1" /><stop
         style="stop-color:#999999;stop-opacity:1"
         offset="1"
         id="stop2" /></linearGradient><linearGradient
       inkscape:collect="always"
       xlink:href="#linearGradient3"
       id="linearGradient10"
       gradientUnits="userSpaceOnUse"
       x1="62.833466"
       y1="123.47018"
       x2="136.32762"
       y2="185.65755" /><linearGradient
       id="linearGradient3"
       inkscape:collect="always"><stop
         style="stop-color:#f2f2f2;stop-opacity:1;"
         offset="0"
         id="stop3" /><stop
         style="stop-color:#f2f2f2;stop-opacity:0;"
         offset="1"
         id="stop4" /></linearGradient><linearGradient
       id="linearGradient6"
       inkscape:collect="always"
       gradientTransform="scale(1.6135492,0.61975179)"
       x1="53.400867"
       y1="224.26772"
       x2="94.195663"
       y2="224.26772"
       gradientUnits="userSpaceOnUse"><stop
         style="stop-color:#f2f2f2;stop-opacity:1;"
         offset="0"
         id="stop5" /><stop
         style="stop-color:#f2f2f2;stop-opacity:0;"
         offset="1"
         id="stop6" /></linearGradient><linearGradient
       inkscape:collect="always"
       xlink:href="#linearGradient3"
       id="linearGradient5"
       x1="62.833466"
       y1="123.47018"
       x2="233.54289"
       y2="172.2979"
       gradientUnits="userSpaceOnUse" /><linearGradient
       id="linearGradient8-5"
       inkscape:collect="always"
       gradientTransform="scale(0.18959575,5.2743797)"
       x1="710.66663"
       y1="14.784077"
       x2="716.82666"
       y2="14.784077"
       gradientUnits="userSpaceOnUse"><stop
         style="stop-color:#f2f2f2;stop-opacity:1;"
         offset="0"
         id="stop16" /><stop
         style="stop-color:#f2f2f2;stop-opacity:0;"
         offset="1"
         id="stop8-2" /></linearGradient><linearGradient
       inkscape:collect="always"
       xlink:href="#linearGradient4"
       id="linearGradient8"
       x1="71.478767"
       y1="112.76062"
       x2="325.28571"
       y2="238.51738"
       gradientUnits="userSpaceOnUse"
       gradientTransform="matrix(0.15104093,0,0,0.15104093,122.09289,103.30778)" /></defs><g
     inkscape:label="Layer 1"
     inkscape:groupmode="layer"
     id="layer1"
     transform="translate(-111.65416,-87.841665)"><g
       id="g8"><g
         id="g9"
         transform="matrix(0.4415001,0,0,0.4415001,92.632162,60.478603)"
         inkscape:export-filename="sig-logo.svg"
         inkscape:export-xdpi="96"
         inkscape:export-ydpi="96"><path
           style="fill:url(#linearGradient2);fill-opacity:1;stroke-width:0.5"
           d="m 144.03146,105.75418 v -3.74134 h 0.4961 0.49609 v 3.33535 3.33535 l 1.67018,0.0242 c 0.9186,0.0133 1.72114,0.0481 1.78342,0.0773 0.13773,0.0645 0.20747,0.26088 0.15329,0.4316 -0.022,0.0694 -0.091,0.15057 -0.15329,0.18037 -0.0623,0.0298 -1.08806,0.0642 -2.27951,0.0764 l -2.16628,0.0221 z m 5.93646,3.55124 c -0.11367,-0.25996 -0.11455,-5.00203 -0.001,-5.25859 0.0656,-0.14814 0.12323,-0.18191 0.31056,-0.18191 0.20948,0 0.23619,0.0221 0.29892,0.24805 0.0924,0.33263 0.0924,4.79368 0,5.1263 -0.0627,0.22588 -0.0894,0.24805 -0.29892,0.24805 -0.18757,0 -0.24472,-0.0336 -0.30958,-0.1819 z m 3.43161,0.0888 c -0.89952,-0.33465 -1.50828,-1.6657 -1.40844,-3.07955 0.0869,-1.23061 0.51522,-1.98806 1.35709,-2.39993 0.407,-0.19912 0.4891,-0.21516 1.10125,-0.21516 0.60194,0 0.68921,0.0163 0.96985,0.18129 0.44802,0.26337 0.71422,0.50448 0.92643,0.83908 0.2359,0.37199 0.24211,0.57807 0.0204,0.67907 -0.29487,0.13435 -0.62121,-5e-4 -0.90217,-0.37301 -0.13578,-0.17996 -0.34518,-0.37964 -0.46535,-0.44371 -0.24799,-0.13223 -0.81547,-0.15758 -1.19122,-0.0532 -0.55346,0.15371 -0.88186,0.90935 -0.87561,2.01477 0.005,0.76021 0.13579,1.29374 0.43455,1.76327 0.22993,0.36135 0.51743,0.51876 0.94752,0.51876 0.42472,0 0.66075,-0.1349 1.16623,-0.66656 0.37531,-0.39473 0.46703,-0.45792 0.66477,-0.45792 0.42243,0 0.50228,0.25996 0.21369,0.69572 -0.26077,0.39375 -0.55196,0.68437 -0.87941,0.8777 -0.26277,0.15513 -0.37256,0.17524 -1.05834,0.19389 -0.54766,0.0149 -0.83795,-0.006 -1.02129,-0.0745 z m 5.4957,0.0129 c -0.32346,-0.0858 -0.89494,-0.60855 -1.1226,-1.02684 -0.50444,-0.92681 -0.50918,-2.41752 -0.0108,-3.40098 0.19696,-0.38868 0.69172,-0.94292 0.98501,-1.10343 0.2997,-0.16401 1.79925,-0.15693 2.23329,0.0106 0.72042,0.27798 1.43677,1.57605 1.4391,2.60776 l 0.001,0.34726 h -2.05352 -2.05352 l 0.0415,0.24805 c 0.14995,0.8967 0.42361,1.35906 0.96364,1.62817 0.57964,0.28885 1.11231,0.20621 1.83041,-0.28395 0.42381,-0.28929 0.88157,-0.41868 0.97075,-0.27438 0.0259,0.0419 0.009,0.22517 -0.0377,0.4072 -0.10737,0.41892 -0.29007,0.53895 -1.15394,0.75809 -0.68643,0.17413 -1.55423,0.20936 -2.03236,0.0825 z m 2.42228,-3.49173 c 0.1202,-0.12882 0.0517,-0.37972 -0.23485,-0.8599 -0.28115,-0.47116 -0.523,-0.59507 -1.16179,-0.59521 -0.26492,-5e-5 -0.57969,0.0409 -0.69948,0.0909 -0.4202,0.17558 -0.95012,1.03666 -0.79212,1.28715 0.11108,0.17609 0.32866,0.20192 1.59072,0.1888 0.97411,-0.0101 1.22267,-0.0315 1.29752,-0.11174 z m 2.41135,3.38997 c -0.1105,-0.26127 -0.11282,-5.00635 -0.003,-5.25859 0.0644,-0.14722 0.12242,-0.1819 0.30455,-0.1819 0.26658,0 0.3458,0.0803 0.40806,0.41341 0.0255,0.13643 0.0835,0.24805 0.1289,0.24805 0.0454,0 0.21496,-0.11656 0.37681,-0.25903 0.45629,-0.40164 0.81706,-0.56167 1.33187,-0.59076 0.56934,-0.0322 0.93562,0.10032 1.32587,0.4796 0.42065,0.40882 0.45102,0.60191 0.46127,2.93201 0.01,2.2258 -0.011,2.34899 -0.40206,2.38677 -0.18084,0.0175 -0.22514,-0.007 -0.28193,-0.15648 -0.037,-0.0975 -0.0943,-1.02953 -0.1272,-2.07125 -0.0329,-1.04172 -0.0933,-2.00561 -0.1341,-2.14198 -0.16457,-0.54938 -0.54867,-0.74589 -1.31031,-0.67038 -1.00235,0.0994 -1.20572,0.56741 -1.3387,3.08069 -0.071,1.34184 -0.14379,1.82951 -0.28676,1.92112 -0.17124,0.10974 -0.37694,0.0502 -0.45369,-0.13128 z m 6.81228,0.11494 c -0.20823,-0.0331 -0.46124,-0.10329 -0.56224,-0.15604 -0.35441,-0.1851 -0.74588,-0.72594 -0.74588,-1.03048 0,-0.30551 0.84881,-0.0567 1.17918,0.34559 0.1582,0.19266 0.70976,0.3286 1.22361,0.3016 0.88812,-0.0467 1.37926,-0.44614 1.26928,-1.03236 -0.0669,-0.35662 -0.27488,-0.5035 -1.0962,-0.77418 -1.44342,-0.47571 -1.95735,-0.75151 -2.2129,-1.18758 -0.18827,-0.32125 -0.21833,-0.77299 -0.0744,-1.11755 0.14493,-0.34687 0.66278,-0.75422 1.15019,-0.90477 1.01598,-0.3138 2.12018,-0.0566 2.84415,0.66242 0.24646,0.24479 0.26335,0.33197 0.094,0.48522 -0.19414,0.17569 -0.5678,0.1393 -0.81931,-0.0798 -0.36442,-0.31744 -0.64584,-0.42634 -1.18425,-0.45829 -0.59899,-0.0356 -0.9316,0.057 -1.11111,0.30908 -0.21033,0.29538 -0.22948,0.48661 -0.0692,0.69044 0.18738,0.23821 0.52314,0.40495 1.49818,0.74397 0.94594,0.32891 1.44669,0.58635 1.63298,0.83954 0.0921,0.12514 0.14295,0.31741 0.16164,0.61093 0.0587,0.92219 -0.10765,1.27697 -0.74511,1.58885 -0.3139,0.15358 -0.45073,0.17612 -1.20413,0.1984 -0.46748,0.0138 -1.02035,-0.002 -1.22858,-0.035 z m 5.70132,-0.0307 c -0.89452,-0.28729 -1.46695,-1.40072 -1.46188,-2.84351 0.006,-1.63538 0.59672,-2.50144 1.91964,-2.81321 0.80916,-0.19069 1.87398,0.10506 2.31809,0.64384 0.36763,0.446 0.79508,1.82621 0.69235,2.23554 -0.0513,0.20445 -0.18735,0.2204 -2.11019,0.24743 -1.77321,0.0249 -1.81901,0.037 -1.81901,0.48235 0,0.8292 0.73599,1.51112 1.62058,1.5015 0.49354,-0.005 0.68631,-0.0794 1.08727,-0.41748 0.53012,-0.447 1.06278,-0.41075 0.86817,0.0591 -0.11832,0.28565 -0.59604,0.71854 -0.93018,0.84289 -0.41503,0.15446 -1.77618,0.19281 -2.18484,0.0616 z m 2.35282,-3.40899 c 0.15232,-0.0579 0.1699,-0.092 0.12789,-0.24805 -0.0268,-0.0995 -0.0707,-0.29338 -0.0976,-0.43085 -0.0631,-0.32249 -0.21928,-0.49275 -0.62821,-0.68483 -0.75584,-0.35501 -1.73727,-0.11486 -2.06525,0.50535 -0.20354,0.3849 -0.18427,0.72354 0.0478,0.84034 0.20472,0.10303 2.35285,0.11785 2.61538,0.0181 z m -28.64001,-3.51946 c -0.14463,-0.20648 -0.13037,-0.55319 0.0293,-0.71288 0.15854,-0.15855 0.41431,-0.17155 0.55751,-0.0284 0.12472,0.12472 0.14194,0.6915 0.0246,0.80887 -0.13615,0.13615 -0.4966,0.0963 -0.61141,-0.0676 z m -7.97433,-4.38398 v -1.091406 h 1.2237 1.2237 v 1.091406 1.091405 h -1.2237 -1.2237 z m 5.49011,-7.408336 v -8.49974 h -1.52136 -1.52135 v 4.134115 4.134115 h -1.2237 -1.2237 v 1.02377 1.02377 l 1.20716,0.01805 1.20717,0.01805 v 1.091405 1.09141 l -1.20717,0.01805 -1.20716,0.01805 v 1.089915 1.089915 h -1.2237 -1.22369 v -1.09141 -1.091405 h 1.22369 1.2237 v -1.12448 -1.12448 h -1.2237 -1.22369 v -7.573695 -7.5737 h 9.62421 9.62422 v 7.56682 7.566825 l -0.97565,0.04365 c -1.16768,0.05226 -1.32409,0.07779 -1.36427,0.22273 -0.017,0.06114 -0.0508,0.53532 -0.0753,1.05374 l -0.0445,0.942575 h 1.22986 1.22985 v 1.091405 1.09141 h -1.22369 -1.2237 v -1.09141 -1.091405 h -1.22646 -1.22645 l 0.035,-0.479555 c 0.0193,-0.26376 0.0527,-0.737555 0.0744,-1.05288 l 0.0393,-0.573325 0.30871,-0.036 c 0.16979,-0.0198 0.68822,-0.05501 1.15207,-0.07826 l 0.84336,-0.0423 v -0.97864 -0.978645 l -0.51263,-0.03895 c -0.28195,-0.02145 -0.79813,-0.05747 -1.14708,-0.08011 l -0.63445,-0.04115 -0.0434,-1.82847 c -0.0239,-1.005655 -0.0435,-2.575475 -0.0436,-3.488485 -8e-5,-0.91301 -0.0195,-1.932485 -0.0431,-2.265495 l -0.043,-0.605475 h -1.37916 -1.37915 v 8.49974 8.499741 h -1.81901 -1.81901 z m 6.41614,7.408336 v -1.091406 h 1.2237 1.2237 v 1.091406 1.091405 h -1.2237 -1.2237 z m 7.73906,-9.822646 V 77.340439 h 2.41433 2.41432 v 10.914065 10.914061 h -2.41432 -2.41433 z m 15.34584,9.789586 v -1.124481 h -1.09141 -1.0914 v -1.09141 -1.091405 h 1.0914 1.09141 v -1.12448 -1.12448 h -1.16208 -1.16208 l 0.0373,-2.36471 c 0.0205,-1.300595 0.0543,-3.622315 0.0752,-5.159375 l 0.038,-2.794665 h -2.74962 -2.74962 v -2.414325 -2.41432 h 7.8065 7.8065 l -0.0361,1.20716 c -0.10265,3.425915 -0.10624,3.48291 -0.22149,3.51522 -0.0598,0.01675 -1.26215,0.05101 -2.67188,0.07611 l -2.56315,0.04565 v 4.126375 4.12638 h -1.23083 -1.23084 l 0.0425,0.677995 c 0.0233,0.3729 0.0587,0.816015 0.0785,0.984705 l 0.036,0.30671 1.13583,0.05709 1.13584,0.0571 v 1.091405 1.09141 l -1.14101,0.05733 -1.14102,0.05733 v 1.008115 1.008115 l 0.40658,0.0425 c 0.22362,0.02335 0.58824,0.04275 0.81028,0.04305 0.22204,3.15e-4 0.55998,0.01935 0.75098,0.0423 l 0.34726,0.0417 v 1.082196 1.08219 h -1.22369 -1.2237 z"
           id="path1" /><g
           id="g6"
           inkscape:export-filename="logo.svg"
           inkscape:export-xdpi="96"
           inkscape:export-ydpi="96"
           transform="matrix(0.70243818,0,0,0.76601896,12.225684,-0.74323501)"><text
             xml:space="preserve"
             style="font-size:56.3507px;font-family:'Vladimir Script';-inkscape-font-specification:'Vladimir Script';fill:url(#linearGradient10);fill-opacity:1;stroke-width:4.69588"
             x="46.951851"
             y="136.00662"
             id="text1"
             transform="scale(1.183216,0.84515423)"><tspan
               sodipodi:role="line"
               id="tspan1"
               style="font-style:italic;font-variant:normal;font-weight:normal;font-stretch:normal;font-family:'Times New Roman';-inkscape-font-specification:'Times New Roman,  Italic';fill:url(#linearGradient10);fill-opacity:1;stroke-width:4.69588"
               x="46.951851"
               y="136.00662">f</tspan></text><text
             xml:space="preserve"
             style="font-size:56.3507px;font-family:'Vladimir Script';-inkscape-font-specification:'Vladimir Script';fill:url(#linearGradient5);fill-opacity:1;stroke-width:4.69588"
             x="55.614628"
             y="143.64508"
             id="text2"
             transform="scale(1.183216,0.84515423)"><tspan
               sodipodi:role="line"
               id="tspan2"
               style="font-style:normal;font-variant:normal;font-weight:normal;font-stretch:normal;font-family:'Times New Roman';-inkscape-font-specification:'Times New Roman, ';fill:url(#linearGradient5);fill-opacity:1;stroke-width:4.69588"
               x="55.614628"
               y="143.64508">arm</tspan></text><text
             xml:space="preserve"
             style="font-size:53.3253px;font-family:'Vladimir Script';-inkscape-font-specification:'Vladimir Script';letter-spacing:-0.0125189px;word-spacing:-0.0125189px;fill:url(#linearGradient6);fill-opacity:1;stroke-width:4.44376"
             x="85.750671"
             y="163.56284"
             id="text3"
             transform="scale(1.1196898,0.8931045)"><tspan
               sodipodi:role="line"
               id="tspan3"
               style="font-style:normal;font-variant:normal;font-weight:normal;font-stretch:normal;font-family:'Times New Roman';-inkscape-font-specification:'Times New Roman, ';letter-spacing:-0.0125189px;word-spacing:-0.0125189px;fill:url(#linearGradient6);fill-opacity:1;stroke-width:4.44376"
               x="85.750671"
               y="163.56284"
               dx="-0.028389316"
               dy="-0.018926211"
               rotate="0 0 0 0">vss</tspan></text></g><rect
           style="fill:url(#linearGradient8-5);fill-opacity:1;stroke-width:0.206831"
           id="rect2"
           width="1.1679158"
           height="32.490345"
           x="134.73938"
           y="77.976837" /></g><path
         style="fill:url(#linearGradient8);fill-opacity:1;stroke-width:0.151041"
         d="m 127.6926,129.35342 c -0.27218,-0.67587 -0.53133,-1.28347 -0.57591,-1.35022 -0.0446,-0.0667 -0.13911,-0.13857 -0.21007,-0.1596 -0.24843,-0.0736 -0.12428,-0.10164 0.45043,-0.10164 0.35967,0 0.57947,0.0152 0.57947,0.04 0,0.022 -0.0437,0.04 -0.0971,0.04 -0.14078,0 -0.2281,0.10293 -0.19738,0.23268 0.0297,0.12512 0.65509,1.69089 0.6936,1.73632 0.0377,0.0446 0.68759,-1.71393 0.67251,-1.81998 -0.009,-0.061 -0.0536,-0.10113 -0.14253,-0.12731 -0.23254,-0.0684 -0.13796,-0.10164 0.28972,-0.10164 0.39876,0 0.53729,0.0417 0.31978,0.0963 -0.16597,0.0416 -0.28767,0.2866 -0.75955,1.52879 -0.24859,0.6544 -0.46912,1.19553 -0.49007,1.20251 -0.0209,0.007 -0.26077,-0.54029 -0.53294,-1.21616 z m 11.43353,0.74636 c 0,-0.46113 0.0448,-0.61924 0.10482,-0.36966 0.12788,0.53207 0.6449,0.84102 1.05366,0.62964 0.15827,-0.0818 0.24025,-0.21119 0.24008,-0.37877 -3.1e-4,-0.24356 -0.12453,-0.37953 -0.67291,-0.73631 -0.2824,-0.18372 -0.55506,-0.39249 -0.60593,-0.46391 -0.21061,-0.29579 -0.11767,-0.77339 0.19015,-0.97709 0.2345,-0.15519 0.50001,-0.17336 0.85117,-0.0582 l 0.28667,0.094 0.0718,-0.0887 c 0.0395,-0.0488 0.0824,-0.0887 0.0954,-0.0887 0.0129,0 0.0235,0.20681 0.0235,0.45958 0,0.25276 -0.0142,0.45957 -0.0317,0.45957 -0.0174,0 -0.053,-0.0799 -0.0791,-0.17759 -0.0526,-0.19647 -0.24014,-0.43461 -0.41262,-0.5238 -0.0616,-0.0318 -0.19317,-0.0579 -0.29241,-0.0579 -0.2459,0 -0.46295,0.18116 -0.46295,0.38642 0,0.0761 0.0185,0.17275 0.0409,0.21478 0.0225,0.0421 0.29674,0.24604 0.60943,0.45335 0.64156,0.42532 0.75235,0.55027 0.77964,0.87925 0.0284,0.34228 -0.12523,0.58353 -0.47158,0.74064 -0.22706,0.10299 -0.44466,0.10401 -0.76501,0.003 -0.31851,-0.0998 -0.37997,-0.0999 -0.43316,-4.4e-4 -0.0905,0.1691 -0.1199,0.0712 -0.1199,-0.39963 z m -9.10189,0.38663 c -0.14331,-0.0796 -0.21654,-0.21655 -0.21947,-0.41051 -0.004,-0.27032 0.0879,-0.36479 0.59923,-0.61553 l 0.44824,-0.21979 7.9e-4,-0.18983 c 8.6e-4,-0.25046 -0.0934,-0.34968 -0.33271,-0.34968 -0.21427,0 -0.31173,0.094 -0.34338,0.33114 -0.0177,0.13247 -0.0406,0.17099 -0.10741,0.18052 -0.0467,0.007 -0.11546,-0.0184 -0.15276,-0.0557 -0.14973,-0.14973 0.0671,-0.45229 0.38567,-0.53806 0.23362,-0.0629 0.56918,-0.0298 0.70289,0.0693 0.16772,0.12434 0.20341,0.29131 0.20589,0.96318 0.003,0.68198 0.0252,0.73489 0.24492,0.57241 0.1727,-0.12769 0.15344,-0.004 -0.0236,0.15094 -0.27394,0.24053 -0.46246,0.21046 -0.55595,-0.0887 -0.021,-0.0672 -0.0339,-0.0642 -0.15275,0.036 -0.244,0.20575 -0.51173,0.26861 -0.69961,0.16427 z m 0.72367,-0.29127 c 0.0981,-0.0715 0.10345,-0.0941 0.10464,-0.44504 7e-4,-0.20331 -0.009,-0.36965 -0.0212,-0.36965 -0.0715,0 -0.47126,0.22092 -0.57473,0.31758 -0.15055,0.14063 -0.16459,0.33702 -0.0358,0.50074 0.0757,0.0962 0.1072,0.10742 0.25501,0.0908 0.0928,-0.0104 0.21521,-0.0529 0.27207,-0.0944 z m 3.07137,0.30236 c -0.17107,-0.0686 -0.20803,-0.25268 -0.20803,-1.03585 v -0.72061 h -0.13987 c -0.16784,0 -0.18044,-0.0568 -0.03,-0.13505 0.1455,-0.0757 0.26012,-0.20538 0.37514,-0.42443 l 0.0944,-0.17984 0.0116,0.30972 0.0117,0.30971 h 0.21811 c 0.16724,0 0.21812,0.014 0.21812,0.0599 0,0.046 -0.051,0.0599 -0.2198,0.0599 h -0.2198 v 0.69045 c 0,0.56025 0.0117,0.70722 0.0622,0.77929 0.0788,0.11248 0.25957,0.11698 0.3574,0.009 0.11048,-0.12209 0.15317,-0.0952 0.0722,0.0455 -0.1321,0.2295 -0.37631,0.32351 -0.60348,0.23235 z m 1.31997,-0.0948 -0.14928,-0.13671 -0.02,-0.72583 c -0.0182,-0.65935 -0.0271,-0.73101 -0.0976,-0.78244 -0.0427,-0.0311 -0.11909,-0.0566 -0.16985,-0.0566 -0.0508,0 -0.0923,-0.018 -0.0923,-0.04 0,-0.0235 0.13988,-0.04 0.33969,-0.04 h 0.33977 v 0.69748 c 0,0.75809 0.0247,0.87395 0.1989,0.9347 0.15268,0.0532 0.28917,0.0172 0.45599,-0.12029 l 0.14436,-0.119 v -0.59427 c 0,-0.5688 -0.003,-0.59693 -0.0888,-0.65648 -0.0489,-0.0342 -0.12078,-0.0622 -0.15985,-0.0622 -0.039,0 -0.071,-0.018 -0.071,-0.04 0,-0.0233 0.13321,-0.04 0.3197,-0.04 h 0.31971 v 0.74194 c 0,0.43502 0.0171,0.77392 0.0414,0.81924 0.0275,0.0515 0.0837,0.0773 0.16785,0.0773 0.071,0 0.10982,0.0146 0.0885,0.0332 -0.0477,0.0416 -0.52965,0.24651 -0.5801,0.24651 -0.0205,0 -0.0373,-0.0922 -0.0373,-0.2049 v -0.20491 l -0.18014,0.16605 c -0.31468,0.29006 -0.5361,0.32087 -0.76956,0.10706 z m 11.53949,-0.66589 c -0.32225,-0.78092 -0.46558,-1.03571 -0.58263,-1.03571 -0.031,0 -0.0564,-0.018 -0.0564,-0.04 0,-0.0241 0.16651,-0.04 0.41961,-0.04 0.42242,0 0.50389,0.0287 0.31971,0.11262 -0.0554,0.0253 -0.0999,0.0792 -0.0999,0.12129 0,0.0631 0.41396,1.11252 0.45509,1.15364 0.0243,0.0243 0.46405,-1.09482 0.46405,-1.18098 0,-0.0575 -0.0324,-0.0933 -0.0999,-0.11023 -0.18983,-0.0477 -0.0989,-0.0963 0.17984,-0.0963 0.15385,0 0.27973,0.01 0.27973,0.0219 0,0.0121 -0.0439,0.0615 -0.0975,0.1099 -0.0624,0.0563 -0.21806,0.38916 -0.43241,0.92482 -0.18419,0.46026 -0.35334,0.84299 -0.37593,0.85051 -0.0226,0.008 -0.19057,-0.34865 -0.37331,-0.79149 z m 1.65485,0.66671 c -0.11296,-0.11295 -0.13585,-0.16519 -0.13573,-0.30971 9e-5,-0.099 0.0322,-0.22639 0.0746,-0.29598 0.0762,-0.12493 0.44192,-0.339 0.8186,-0.47913 l 0.19404,-0.0722 -0.0255,-0.20277 c -0.0318,-0.25223 -0.12698,-0.34264 -0.36077,-0.34264 -0.20019,0 -0.30149,0.0891 -0.30149,0.26526 0,0.17728 -0.0844,0.27184 -0.21358,0.23941 -0.09,-0.0226 -0.10613,-0.0483 -0.10613,-0.16882 0,-0.44472 0.88478,-0.63154 1.21888,-0.25737 0.0716,0.0803 0.082,0.16243 0.0999,0.79433 0.0183,0.64368 0.0264,0.70602 0.0935,0.71888 0.0404,0.008 0.11686,-0.0266 0.16984,-0.0765 0.0752,-0.0706 0.0963,-0.0768 0.0963,-0.0283 0,0.0909 -0.30456,0.3513 -0.41084,0.3513 -0.13817,0 -0.26853,-0.1101 -0.26853,-0.22681 v -0.10238 l -0.13989,0.1067 c -0.34101,0.2601 -0.60165,0.28821 -0.80324,0.0866 z m 0.79397,-0.20525 0.14915,-0.10134 v -0.35823 c 0,-0.23462 -0.0153,-0.35822 -0.0441,-0.35822 -0.0242,0 -0.16908,0.0657 -0.32181,0.14592 -0.38492,0.20228 -0.49337,0.43552 -0.31055,0.66793 0.11107,0.1412 0.32299,0.14279 0.52732,0.004 z m 1.33805,0.3116 -0.22978,-0.0144 v -0.31771 c 0,-0.34714 0.0411,-0.405 0.11428,-0.16081 0.10309,0.3441 0.52668,0.5152 0.74212,0.29976 0.0859,-0.0859 0.0799,-0.31958 -0.0105,-0.40999 -0.0403,-0.0402 -0.21866,-0.15972 -0.39642,-0.26547 -0.37953,-0.22576 -0.47372,-0.35854 -0.43884,-0.61866 0.0447,-0.33362 0.28596,-0.46532 0.76933,-0.42002 l 0.29899,0.028 v 0.27504 c 0,0.28492 -0.0515,0.3673 -0.0947,0.15144 -0.0367,-0.18361 -0.24017,-0.35596 -0.4202,-0.35596 -0.2063,0 -0.32437,0.0931 -0.32437,0.25583 0,0.15721 0.0421,0.19679 0.45407,0.42747 0.41158,0.23044 0.50504,0.34191 0.50504,0.60241 0,0.13607 -0.0255,0.23643 -0.0794,0.31209 -0.0937,0.13155 -0.34899,0.24359 -0.53083,0.23295 -0.071,-0.004 -0.23248,-0.014 -0.35886,-0.022 z m 1.74049,-0.0183 c -0.17854,-0.0863 -0.21191,-0.24803 -0.21191,-1.0272 v -0.72329 h -0.13987 c -0.16981,0 -0.18009,-0.0571 -0.0247,-0.13741 0.14014,-0.0725 0.31432,-0.27342 0.40045,-0.46203 l 0.0639,-0.13987 0.0117,0.30971 0.0116,0.30972 h 0.21812 c 0.16724,0 0.21811,0.014 0.21811,0.0599 0,0.046 -0.051,0.0599 -0.21979,0.0599 h -0.2198 l 6e-4,0.66938 c 4.6e-4,0.45726 0.0165,0.70104 0.0509,0.76929 0.0691,0.13709 0.24638,0.15435 0.37215,0.0362 0.12925,-0.12142 0.16523,-0.0698 0.0572,0.082 -0.15175,0.21309 -0.38765,0.2907 -0.58857,0.19363 z m 1.07133,-0.0545 c -0.21645,-0.18212 -0.21404,-0.51981 0.005,-0.7342 0.0683,-0.0667 0.3025,-0.19806 0.5205,-0.29181 l 0.39637,-0.17046 -0.0185,-0.19727 c -0.0223,-0.23807 -0.12746,-0.34223 -0.34532,-0.34223 -0.20431,0 -0.29167,0.0765 -0.31946,0.27975 -0.0403,0.29438 -0.28756,0.32917 -0.31581,0.0444 -0.0314,-0.31621 0.51769,-0.53642 1.0021,-0.4019 0.25882,0.0719 0.28661,0.15761 0.30933,0.95446 0.0183,0.63983 0.0264,0.70207 0.0935,0.71493 0.0404,0.008 0.11678,-0.0266 0.16969,-0.0763 0.0529,-0.0497 0.10959,-0.077 0.12597,-0.0606 0.0518,0.0518 -0.33453,0.38347 -0.44676,0.38347 -0.12289,0 -0.26208,-0.12842 -0.26208,-0.24182 0,-0.0789 -0.005,-0.0782 -0.13203,0.0187 -0.31259,0.23842 -0.59167,0.28148 -0.78269,0.12075 z m 0.75895,-0.22884 0.13579,-0.0914 0.0115,-0.36819 c 0.008,-0.24219 -0.003,-0.36819 -0.0313,-0.36819 -0.0714,0 -0.45346,0.20292 -0.55391,0.29414 -0.13727,0.12467 -0.17592,0.25284 -0.12384,0.41066 0.0243,0.0736 0.0743,0.15138 0.1111,0.17286 0.11466,0.0669 0.3091,0.0453 0.45067,-0.0499 z m 1.67856,-0.29836 c -0.37142,-0.91465 -0.47782,-1.12786 -0.58787,-1.17799 -0.17984,-0.082 -0.0957,-0.1107 0.32391,-0.1107 0.3988,0 0.53728,0.0417 0.31971,0.0963 -0.0802,0.0202 -0.0999,0.05 -0.0999,0.15166 0,0.14235 0.40543,1.16248 0.44466,1.11882 0.0139,-0.0154 0.12861,-0.28419 0.25499,-0.59724 0.18922,-0.46876 0.22095,-0.57982 0.17978,-0.62941 -0.0275,-0.0331 -0.0747,-0.0603 -0.10504,-0.0603 -0.0302,0 -0.0551,-0.018 -0.0551,-0.04 0,-0.0226 0.11323,-0.04 0.25976,-0.04 0.26769,0 0.31412,0.0267 0.18568,0.10696 -0.044,0.0274 -0.2187,0.40492 -0.4296,0.92795 -0.19554,0.48492 -0.3735,0.882 -0.39549,0.88238 -0.022,4.5e-4 -0.15496,-0.28248 -0.29551,-0.62859 z m 1.59874,0.5272 c -0.21645,-0.18212 -0.21403,-0.51981 0.005,-0.7342 0.0683,-0.0667 0.3025,-0.19806 0.5205,-0.29181 l 0.39637,-0.17046 -0.0185,-0.19727 c -0.0223,-0.23807 -0.12747,-0.34223 -0.34533,-0.34223 -0.20431,0 -0.29167,0.0765 -0.31946,0.27975 -0.0402,0.29438 -0.28755,0.32917 -0.31581,0.0444 -0.0314,-0.31621 0.5177,-0.53642 1.0021,-0.4019 0.25883,0.0719 0.28662,0.15761 0.30933,0.95446 0.0183,0.63983 0.0264,0.70207 0.0935,0.71493 0.0404,0.008 0.11679,-0.0266 0.16969,-0.0763 0.0529,-0.0497 0.10959,-0.077 0.12598,-0.0606 0.0518,0.0518 -0.33453,0.38347 -0.44677,0.38347 -0.12289,0 -0.26208,-0.12842 -0.26208,-0.24182 0,-0.0789 -0.005,-0.0782 -0.13203,0.0187 -0.31259,0.23842 -0.59167,0.28148 -0.78269,0.12075 z m 0.75895,-0.22884 0.13579,-0.0914 0.0115,-0.36819 c 0.008,-0.24219 -0.003,-0.36819 -0.0313,-0.36819 -0.0713,0 -0.45346,0.20292 -0.55389,0.29414 -0.13728,0.12467 -0.17593,0.25284 -0.12385,0.41066 0.0243,0.0736 0.0743,0.15138 0.11111,0.17286 0.11466,0.0669 0.3091,0.0453 0.45066,-0.0499 z m -26.29968,0.25124 c 0,-0.022 0.0332,-0.04 0.0737,-0.04 0.0405,0 0.1035,-0.0329 0.13988,-0.0731 0.0559,-0.0618 0.0661,-0.17536 0.0661,-0.7379 0,-0.63227 -0.004,-0.66701 -0.083,-0.70928 -0.0457,-0.0245 -0.10862,-0.0346 -0.13987,-0.0227 -0.0312,0.012 -0.0568,0.004 -0.0568,-0.0174 0,-0.036 0.31625,-0.19349 0.51557,-0.25674 0.0768,-0.0244 0.0839,-0.0113 0.0839,0.1559 0,0.21207 0.0302,0.22673 0.13739,0.0667 0.21183,-0.31618 0.62191,-0.31548 0.62191,8.7e-4 0,0.19213 -0.17058,0.25744 -0.29973,0.11474 -0.11403,-0.12601 -0.24242,-0.1012 -0.35822,0.0692 -0.094,0.13834 -0.10135,0.18255 -0.10135,0.6097 0,0.64074 0.0529,0.79762 0.26975,0.7991 0.0495,3e-4 0.0899,0.0186 0.0899,0.0406 0,0.0244 -0.18649,0.04 -0.47956,0.04 -0.29306,0 -0.47956,-0.0155 -0.47956,-0.04 z m 5.11526,0 c 0,-0.022 0.0346,-0.04 0.0771,-0.04 0.19478,0 0.20267,-0.0482 0.20267,-1.23844 0,-0.61206 -0.011,-1.14128 -0.0242,-1.17605 -0.0144,-0.0375 -0.0713,-0.0632 -0.13987,-0.0632 -0.0636,0 -0.11562,-0.0182 -0.11562,-0.0405 0,-0.0405 0.37312,-0.22106 0.54702,-0.26471 l 0.0924,-0.0232 v 1.34023 c 0,1.16511 0.009,1.34844 0.0627,1.40303 0.0346,0.0346 0.0885,0.0628 0.1199,0.0628 0.0314,0 0.0571,0.018 0.0571,0.04 0,0.0242 -0.17317,0.04 -0.43959,0.04 -0.26642,0 -0.4396,-0.0158 -0.4396,-0.04 z m 4.31599,0.005 c 0,-0.0192 0.0542,-0.0458 0.12055,-0.059 0.0806,-0.0161 0.13358,-0.0584 0.15985,-0.12748 0.0222,-0.0583 0.0393,-0.56404 0.0393,-1.15979 0,-1.01191 -0.003,-1.05987 -0.082,-1.13838 -0.0553,-0.0553 -0.1088,-0.0734 -0.16458,-0.0558 -0.058,0.0184 -0.0775,0.0107 -0.0652,-0.0259 0.0155,-0.0465 0.51252,-0.276 0.59761,-0.276 0.0186,0 0.0339,0.30025 0.0339,0.66722 v 0.66723 l 0.12987,-0.12571 c 0.25448,-0.24629 0.57615,-0.31449 0.76874,-0.163 0.18554,0.14594 0.22035,0.29261 0.22035,0.92853 0,0.66489 0.027,0.77458 0.19915,0.80901 0.25572,0.0511 0.10106,0.094 -0.33903,0.094 -0.27973,0 -0.45957,-0.0156 -0.45957,-0.04 0,-0.022 0.0349,-0.04 0.0777,-0.04 0.1672,0 0.20208,-0.13637 0.20208,-0.78998 0,-0.59687 -0.003,-0.61484 -0.0981,-0.71044 -0.14715,-0.14716 -0.41083,-0.11636 -0.61125,0.0714 -0.0853,0.0799 -0.0899,0.11422 -0.0899,0.66782 0,0.64049 0.0353,0.76122 0.22206,0.76122 0.0537,0 0.0977,0.018 0.0977,0.04 0,0.0244 -0.1865,0.04 -0.47956,0.04 -0.26375,0 -0.47955,-0.0157 -0.47955,-0.035 z m 2.23793,-0.005 c 0,-0.022 0.0359,-0.04 0.0799,-0.04 0.044,0 0.1159,-0.0359 0.15986,-0.0799 0.0733,-0.0733 0.0799,-0.13322 0.0799,-0.71648 0,-0.53812 -0.0102,-0.64675 -0.0659,-0.70246 -0.0363,-0.0362 -0.0992,-0.0572 -0.13983,-0.0465 -0.0407,0.0106 -0.0825,0.005 -0.0929,-0.0114 -0.0177,-0.0286 0.5066,-0.28148 0.58355,-0.28148 0.0191,0 0.0348,0.0941 0.0348,0.20909 v 0.20909 l 0.10105,-0.14871 c 0.10427,-0.15345 0.27976,-0.26947 0.40759,-0.26947 0.23263,0 0.34946,0.31635 0.15035,0.40708 -0.0854,0.0389 -0.11401,0.0328 -0.19239,-0.0408 -0.13148,-0.12352 -0.24577,-0.10874 -0.36466,0.0472 -0.0982,0.12873 -0.10194,0.1545 -0.10194,0.69935 0,0.51242 0.008,0.57323 0.0799,0.64562 0.044,0.044 0.12488,0.0799 0.17983,0.0799 0.0549,0 0.0999,0.018 0.0999,0.04 0,0.0245 -0.19316,0.04 -0.49954,0.04 -0.30638,0 -0.49954,-0.0154 -0.49954,-0.04 z m 1.55855,0 c 0,-0.022 0.0332,-0.04 0.0737,-0.04 0.0406,0 0.1035,-0.0329 0.13986,-0.0731 0.0559,-0.0618 0.066,-0.17419 0.0655,-0.72932 -3.1e-4,-0.36093 -0.0163,-0.68097 -0.0354,-0.71119 -0.0191,-0.0303 -0.0826,-0.0549 -0.14092,-0.0549 -0.18005,0 -0.0913,-0.0797 0.19709,-0.17693 0.15134,-0.051 0.28965,-0.0928 0.30735,-0.0928 0.0177,0 0.0322,0.38386 0.0322,0.85301 0,0.77563 0.007,0.85901 0.0731,0.91915 0.0402,0.0364 0.0941,0.0661 0.11989,0.0661 0.0258,0 0.0468,0.018 0.0468,0.04 0,0.0242 -0.17318,0.04 -0.43959,0.04 -0.26643,0 -0.4396,-0.0158 -0.4396,-0.04 z m 0.30592,-2.51082 c -0.088,-0.0972 -0.0834,-0.17864 0.015,-0.2677 0.11863,-0.10736 0.29361,-0.0402 0.31193,0.11975 0.0225,0.19677 -0.19406,0.29478 -0.32693,0.14795 z m -3.20323,-1.04999 c -0.25646,-0.15008 -0.34514,-0.35663 -0.26168,-0.6095 0.0434,-0.13168 0.27011,-0.37322 0.47426,-0.50544 0.0813,-0.0527 0.0874,-0.0739 0.05,-0.17244 -0.0639,-0.16796 -0.0528,-0.51459 0.0197,-0.61807 0.2663,-0.3802 0.90844,-0.17939 0.80058,0.25037 -0.0309,0.12336 -0.24207,0.36818 -0.3459,0.40114 -0.0426,0.0135 -0.0775,0.0448 -0.0775,0.0696 0,0.0863 0.32638,0.59352 0.3728,0.57938 0.0721,-0.022 0.22665,-0.35269 0.22665,-0.48517 0,-0.0651 -0.0297,-0.15115 -0.0661,-0.19134 -0.0635,-0.0702 -0.0537,-0.0731 0.24977,-0.0729 l 0.31591,1.5e-4 -0.12862,0.0784 c -0.0821,0.0501 -0.17427,0.16925 -0.25483,0.32955 -0.0694,0.13812 -0.1599,0.29885 -0.20107,0.35719 -0.0412,0.0584 -0.0749,0.11668 -0.0749,0.12963 0,0.0129 0.0747,0.0776 0.16585,0.14369 0.19431,0.14076 0.36019,0.15359 0.4769,0.0369 0.11087,-0.11088 0.1376,-0.0734 0.0577,0.081 -0.13988,0.27048 -0.49716,0.30794 -0.75743,0.0794 l -0.13516,-0.11866 -0.19772,0.12291 c -0.22177,0.13786 -0.57233,0.19434 -0.70916,0.11426 z m 0.70969,-0.25301 0.10497,-0.0688 -0.13279,-0.18673 c -0.073,-0.10271 -0.17129,-0.26316 -0.21833,-0.35657 -0.0471,-0.0934 -0.11027,-0.16985 -0.14051,-0.16985 -0.0303,0 -0.1108,0.0635 -0.17902,0.14126 -0.0998,0.11367 -0.12403,0.17674 -0.12403,0.32279 0,0.14903 0.0218,0.20331 0.1218,0.30331 0.10696,0.10695 0.14258,0.11945 0.29237,0.10256 0.0938,-0.0106 0.2178,-0.0502 0.27554,-0.088 z m 0.0413,-1.14221 c 0.14101,-0.11092 0.20563,-0.31684 0.14274,-0.45487 -0.0498,-0.10928 -0.18848,-0.17011 -0.29482,-0.1293 -0.13595,0.0521 -0.16646,0.38482 -0.0545,0.59405 0.0484,0.0905 0.0809,0.0889 0.20656,-0.01 z m -18.07494,0.26039 v -0.0999 h 8.17242 8.17241 v 0.0999 0.0999 h -8.17241 -8.17242 z m 20.34113,0 v -0.0999 h 8.17241 8.17241 v 0.0999 0.0999 h -8.17241 -8.17241 z m -12.78814,-1.6185 c -0.044,-0.044 -0.0799,-0.1069 -0.0799,-0.13987 0,-0.0849 0.14541,-0.2198 0.23691,-0.2198 0.18268,0 0.26861,0.24765 0.1296,0.37345 -0.0971,0.0879 -0.18935,0.0834 -0.28659,-0.0138 z m 1.95818,-0.39963 c 0,-0.26376 0.0152,-0.47956 0.0336,-0.47956 0.0185,0 0.056,0.0746 0.0834,0.16585 0.11804,0.394 0.39762,0.63342 0.73967,0.63342 0.32892,0 0.54207,-0.17271 0.54207,-0.43921 0,-0.2165 -0.1506,-0.39536 -0.53871,-0.63979 -0.7323,-0.46124 -0.8273,-0.56281 -0.84985,-0.90863 -0.0184,-0.28108 0.0659,-0.45892 0.29397,-0.62069 0.23019,-0.16327 0.49696,-0.18373 0.85693,-0.0657 l 0.28666,0.094 0.0718,-0.0887 c 0.0395,-0.0488 0.0824,-0.0887 0.0954,-0.0887 0.0129,0 0.0235,0.20681 0.0235,0.45957 0,0.25277 -0.0142,0.45958 -0.0317,0.45958 -0.0174,0 -0.0525,-0.0765 -0.0779,-0.16985 -0.15099,-0.55455 -0.80815,-0.78466 -1.118,-0.39147 -0.0762,0.0967 -0.061,0.33829 0.0285,0.45196 0.0438,0.0557 0.26243,0.21357 0.48585,0.35087 0.47799,0.29373 0.69041,0.47605 0.79615,0.6833 0.16193,0.31742 0.0431,0.71551 -0.27361,0.91634 -0.2491,0.15797 -0.48611,0.18681 -0.80829,0.0984 -0.42727,-0.11731 -0.46761,-0.11926 -0.52623,-0.0254 -0.0289,0.0462 -0.0661,0.084 -0.0828,0.084 -0.0167,0 -0.0303,-0.2158 -0.0303,-0.47955 z m 15.26584,0 c 0,-0.46113 0.0448,-0.61924 0.10482,-0.36965 0.12787,0.53206 0.6449,0.84102 1.05366,0.62964 0.15827,-0.0818 0.24025,-0.2112 0.24007,-0.37878 -3e-4,-0.24355 -0.12452,-0.37953 -0.67291,-0.7363 -0.28239,-0.18373 -0.55506,-0.3925 -0.60592,-0.46392 -0.21062,-0.29578 -0.11768,-0.77339 0.19014,-0.97709 0.23451,-0.15519 0.50001,-0.17335 0.85118,-0.0582 l 0.28666,0.094 0.0718,-0.0887 c 0.0395,-0.0488 0.0824,-0.0887 0.0954,-0.0887 0.0129,0 0.0235,0.20681 0.0235,0.45958 0,0.25277 -0.0142,0.45958 -0.0316,0.45958 -0.0174,0 -0.053,-0.0799 -0.0791,-0.17759 -0.0526,-0.19648 -0.24014,-0.43462 -0.41262,-0.52381 -0.0616,-0.0318 -0.19316,-0.0579 -0.29241,-0.0579 -0.24591,0 -0.46294,0.18115 -0.46294,0.38642 0,0.0761 0.0184,0.17274 0.0409,0.21478 0.0225,0.0421 0.29674,0.24604 0.60944,0.45334 0.64155,0.42533 0.75235,0.55028 0.77963,0.87926 0.0284,0.34229 -0.12522,0.58353 -0.47158,0.74064 -0.22705,0.10299 -0.44466,0.10401 -0.76501,0.003 -0.31851,-0.0998 -0.37997,-0.0999 -0.43316,-4.5e-4 -0.0905,0.1691 -0.11989,0.0712 -0.11989,-0.39964 z m -20.48861,0.34224 c -0.59566,-0.27734 -0.70281,-1.08431 -0.20949,-1.57764 0.51315,-0.51314 1.34538,-0.27464 1.51546,0.4343 0.14304,0.59627 -0.35392,1.24193 -0.95464,1.2403 -0.0791,-1.5e-4 -0.23724,-0.0439 -0.35133,-0.097 z m 0.78107,-0.20184 c 0.15821,-0.1802 0.22102,-0.41752 0.1899,-0.71765 -0.0296,-0.28544 -0.1472,-0.54354 -0.31015,-0.68065 -0.17777,-0.14958 -0.47676,-0.14357 -0.63305,0.0127 -0.30748,0.30748 -0.23566,1.11983 0.12589,1.42407 0.0919,0.0773 0.16483,0.10083 0.31246,0.10083 0.16995,0 0.207,-0.0164 0.31495,-0.13934 z m 9.23627,0.20928 c -0.45335,-0.2293 -0.60613,-0.94873 -0.31244,-1.47128 0.17366,-0.30898 0.58923,-0.47043 0.92535,-0.35951 0.17763,0.0586 0.36919,0.27105 0.4247,0.47095 0.0731,0.26307 0.10237,0.25087 -0.60247,0.25087 h -0.64484 l 0.026,0.18982 c 0.0332,0.24282 0.20549,0.51957 0.38455,0.61766 0.27639,0.1514 0.69607,0.0141 0.78169,-0.25562 0.0128,-0.0404 0.039,-0.0638 0.058,-0.0521 0.049,0.0302 -0.0331,0.25467 -0.15123,0.41367 -0.11668,0.15704 -0.36962,0.28326 -0.57012,0.2845 -0.0777,4.6e-4 -0.22138,-0.0396 -0.31916,-0.089 z m 0.63952,-1.3726 c -0.0495,-0.2192 -0.18071,-0.33607 -0.37575,-0.33455 -0.21965,0.002 -0.35235,0.11333 -0.42152,0.35453 l -0.0355,0.12375 h 0.43259 0.4326 z m 5.40551,1.40955 c -0.1433,-0.0796 -0.21653,-0.21656 -0.21946,-0.4105 -0.004,-0.27033 0.0879,-0.36479 0.59923,-0.61554 l 0.44824,-0.2198 7.6e-4,-0.18982 c 8.6e-4,-0.25046 -0.0934,-0.34967 -0.33272,-0.34967 -0.21427,0 -0.31173,0.094 -0.34338,0.33113 -0.0177,0.13247 -0.0406,0.17099 -0.10741,0.18052 -0.0467,0.007 -0.11545,-0.0185 -0.15276,-0.0557 -0.14973,-0.14974 0.0671,-0.45229 0.38568,-0.53807 0.23362,-0.0629 0.56918,-0.0298 0.70288,0.0693 0.16772,0.12434 0.20342,0.29131 0.2059,0.96319 0.003,0.68197 0.0252,0.73488 0.24492,0.5724 0.1727,-0.12768 0.15344,-0.004 -0.0236,0.15095 -0.27394,0.24052 -0.46245,0.21045 -0.55594,-0.0887 -0.021,-0.0672 -0.0339,-0.0642 -0.15275,0.036 -0.24401,0.20575 -0.51173,0.2686 -0.69962,0.16426 z m 0.72367,-0.29127 c 0.0981,-0.0716 0.10346,-0.0941 0.10465,-0.44503 7.6e-4,-0.20331 -0.009,-0.36966 -0.0212,-0.36966 -0.0715,0 -0.47125,0.22093 -0.57471,0.31758 -0.15056,0.14064 -0.1646,0.33702 -0.0359,0.50074 0.0757,0.0962 0.1072,0.10742 0.25501,0.0908 0.0928,-0.0104 0.2152,-0.0529 0.27207,-0.0944 z m 8.62186,0.29369 c -0.0528,-0.0272 -0.13376,-0.10007 -0.17984,-0.16204 -0.0757,-0.10179 -0.0857,-0.18205 -0.10376,-0.83079 -0.0213,-0.7661 -0.0291,-0.79295 -0.22978,-0.79431 -0.0495,-3e-4 -0.0899,-0.0186 -0.0899,-0.0406 0,-0.0233 0.13239,-0.04 0.31724,-0.04 h 0.31723 l 0.0125,0.7383 c 0.0118,0.7016 0.0169,0.74273 0.10144,0.82719 0.12016,0.12002 0.3296,0.11075 0.53259,-0.0236 l 0.15771,-0.10437 v -0.61601 c 0,-0.66854 -0.0219,-0.7416 -0.22266,-0.7416 -0.0534,0 -0.0971,-0.018 -0.0971,-0.04 0,-0.0234 0.13321,-0.04 0.31971,-0.04 h 0.3197 v 0.73042 c 0,0.80205 0.0221,0.88995 0.23022,0.91711 0.0982,0.0128 0.0851,0.0255 -0.12784,0.12362 -0.13051,0.0602 -0.27888,0.11979 -0.32969,0.13254 -0.0878,0.0221 -0.0924,0.0127 -0.0924,-0.18762 v -0.21081 l -0.14986,0.15168 c -0.23831,0.24119 -0.48104,0.31582 -0.68551,0.21073 z m 5.19575,-0.0518 c -0.21644,-0.18213 -0.21404,-0.51982 0.005,-0.7342 0.0683,-0.0667 0.30249,-0.19806 0.52049,-0.29182 l 0.39637,-0.17046 -0.0185,-0.19728 c -0.0223,-0.23805 -0.12746,-0.34222 -0.34531,-0.34222 -0.20432,0 -0.29168,0.0765 -0.31948,0.27976 -0.0403,0.29437 -0.28755,0.32916 -0.3158,0.0444 -0.0314,-0.31622 0.51769,-0.53643 1.0021,-0.40191 0.25883,0.0719 0.28661,0.15762 0.30933,0.95446 0.0183,0.63983 0.0264,0.70208 0.0935,0.71493 0.0404,0.008 0.11679,-0.0266 0.16969,-0.0763 0.0529,-0.0497 0.10959,-0.077 0.12598,-0.0606 0.0518,0.0518 -0.33454,0.38347 -0.44677,0.38347 -0.1229,0 -0.26208,-0.12842 -0.26208,-0.24181 0,-0.0789 -0.005,-0.0781 -0.13203,0.0188 -0.3126,0.23842 -0.59168,0.28148 -0.78269,0.12075 z m 0.75895,-0.22884 0.13579,-0.0914 0.0115,-0.36819 c 0.008,-0.24221 -0.003,-0.3682 -0.0313,-0.3682 -0.0714,0 -0.45346,0.20293 -0.5539,0.29414 -0.13727,0.12466 -0.17593,0.25284 -0.12384,0.41066 0.0243,0.0736 0.0743,0.15138 0.11109,0.17286 0.11466,0.0669 0.3091,0.0453 0.45067,-0.0499 z m -35.9707,0.25123 c 0,-0.022 0.054,-0.04 0.11989,-0.04 0.0666,0 0.15541,-0.0355 0.19981,-0.0799 0.0762,-0.0762 0.0799,-0.1332 0.0799,-1.21887 0,-1.08566 -0.003,-1.14268 -0.0799,-1.21886 -0.0444,-0.0444 -0.13321,-0.0799 -0.19981,-0.0799 -0.0659,0 -0.11989,-0.0196 -0.11989,-0.0435 0,-0.0304 0.23777,-0.0395 0.78927,-0.03 0.78479,0.0135 0.79063,0.0143 1.02905,0.1335 0.36335,0.18167 0.51298,0.47248 0.42025,0.81683 -0.12161,0.45163 -0.61165,0.67019 -1.22951,0.54839 l -0.16984,-0.0334 v 0.52303 c 0,0.46975 0.008,0.53118 0.0799,0.60296 0.0444,0.0444 0.13321,0.0799 0.19982,0.0799 0.0659,0 0.11988,0.018 0.11988,0.04 0,0.0249 -0.23311,0.04 -0.61943,0.04 -0.3863,0 -0.61941,-0.015 -0.61941,-0.04 z m 1.58869,-1.49011 c 0.12666,-0.12666 0.14612,-0.17264 0.15918,-0.37613 0.0266,-0.41328 -0.21143,-0.69138 -0.59159,-0.69138 -0.32836,0 -0.31706,-0.0215 -0.31706,0.605 0,0.64226 8.6e-4,0.64418 0.3925,0.61998 0.18231,-0.0113 0.23326,-0.0338 0.35697,-0.15747 z m 0.88901,1.49011 c 0,-0.022 0.0332,-0.04 0.0737,-0.04 0.0405,0 0.10349,-0.0329 0.13986,-0.0731 0.056,-0.0618 0.0661,-0.17535 0.0661,-0.73791 0,-0.63225 -0.004,-0.667 -0.083,-0.70926 -0.0457,-0.0245 -0.10862,-0.0346 -0.13988,-0.0227 -0.0312,0.012 -0.0568,0.004 -0.0568,-0.0174 0,-0.036 0.31625,-0.19348 0.51556,-0.25674 0.0768,-0.0244 0.0839,-0.0113 0.0839,0.15591 0,0.21207 0.0302,0.22673 0.13738,0.0667 0.21184,-0.3162 0.62191,-0.31548 0.62191,8.6e-4 0,0.19213 -0.17058,0.25744 -0.29972,0.11474 -0.11404,-0.12601 -0.24242,-0.1012 -0.35823,0.0692 -0.094,0.13832 -0.10134,0.18254 -0.10134,0.60969 0,0.64075 0.0529,0.79762 0.26975,0.7991 0.0495,3e-4 0.0899,0.0186 0.0899,0.0406 0,0.0244 -0.18649,0.04 -0.47955,0.04 -0.29307,0 -0.47956,-0.0155 -0.47956,-0.04 z m 3.75652,0.009 c 0,-0.0174 0.0578,-0.0489 0.12863,-0.0699 0.0862,-0.0256 0.13763,-0.0712 0.15587,-0.13815 0.015,-0.0549 0.0291,-0.41911 0.0312,-0.80924 l 0.004,-0.70935 h -0.13986 c -0.0977,0 -0.13987,-0.0181 -0.13987,-0.06 0,-0.0419 0.0421,-0.0599 0.13987,-0.0599 h 0.13986 v -0.20717 c 0,-0.45545 0.29661,-0.77191 0.72348,-0.77191 0.16932,0 0.25864,0.0215 0.33951,0.0819 0.16039,0.11975 0.20446,0.20341 0.15159,0.28774 -0.0783,0.12485 -0.19066,0.10289 -0.34896,-0.0682 -0.1183,-0.12786 -0.17789,-0.16158 -0.2855,-0.16158 -0.20492,0 -0.26041,0.10835 -0.26041,0.50843 v 0.33079 h 0.17983 c 0.13321,0 0.17983,0.0155 0.17983,0.0599 0,0.0444 -0.0466,0.06 -0.17983,0.06 h -0.17983 v 0.77307 c 0,0.6982 0.007,0.77949 0.0731,0.83923 0.0402,0.0364 0.11213,0.0661 0.15985,0.0661 0.0478,0 0.0868,0.018 0.0868,0.04 0,0.0244 -0.18649,0.04 -0.47955,0.04 -0.26376,0 -0.47956,-0.0142 -0.47956,-0.0317 z m 5.67473,-0.009 c 0,-0.022 0.0346,-0.04 0.0771,-0.04 0.0424,0 0.10533,-0.0283 0.13987,-0.0628 0.0542,-0.0542 0.0628,-0.22105 0.0628,-1.21746 0,-1.12824 -0.002,-1.15568 -0.0831,-1.19911 -0.0457,-0.0245 -0.10862,-0.0346 -0.13987,-0.0227 -0.0313,0.012 -0.0568,0.004 -0.0568,-0.0174 0,-0.0396 0.37564,-0.22045 0.54701,-0.26346 l 0.0924,-0.0232 v 0.6619 0.6619 l 0.0945,-0.0945 c 0.16487,-0.16486 0.421,-0.27254 0.59331,-0.24943 0.1918,0.0257 0.26397,0.084 0.35664,0.28766 0.0598,0.13154 0.0728,0.26622 0.0736,0.7604 8.6e-4,0.65849 0.0353,0.77818 0.22293,0.77818 0.0537,0 0.0976,0.018 0.0976,0.04 0,0.0244 -0.1865,0.04 -0.47956,0.04 -0.45728,0 -0.61831,-0.0422 -0.359,-0.094 0.17055,-0.0341 0.19915,-0.14465 0.19915,-0.76975 0,-0.69183 -0.0535,-0.81465 -0.35493,-0.81465 -0.0597,0 -0.18416,0.049 -0.27648,0.10883 l -0.16785,0.10884 v 0.62762 c 0,0.68111 0.0213,0.75323 0.22265,0.75323 0.0533,0 0.0971,0.018 0.0971,0.04 0,0.0244 -0.1865,0.04 -0.47956,0.04 -0.29306,0 -0.47956,-0.0155 -0.47956,-0.04 z m 4.03625,0 c 0,-0.022 0.0332,-0.04 0.0737,-0.04 0.0405,0 0.10349,-0.0329 0.13987,-0.0731 0.0583,-0.0644 0.0661,-0.20716 0.0661,-1.19562 0,-0.61739 -0.0109,-1.15098 -0.0242,-1.18575 -0.0146,-0.038 -0.0716,-0.0632 -0.1432,-0.0632 -0.18844,0 -0.11429,-0.0808 0.16914,-0.18422 0.14194,-0.0518 0.27156,-0.0945 0.28804,-0.0949 0.0165,-3e-4 0.03,0.40397 0.03,0.8985 0,0.49454 0.0139,0.89917 0.0309,0.89917 0.017,0 0.17208,-0.142 0.34461,-0.31555 0.29244,-0.29417 0.34717,-0.40378 0.20158,-0.40378 -0.0316,0 -0.0576,-0.018 -0.0576,-0.04 0,-0.0241 0.16651,-0.04 0.41961,-0.04 0.2531,0 0.41961,0.0159 0.41961,0.04 0,0.022 -0.0455,0.04 -0.10119,0.04 -0.0557,0 -0.15906,0.0246 -0.22979,0.0546 -0.13995,0.0595 -0.66809,0.52715 -0.66809,0.5916 0,0.0219 0.15549,0.23793 0.34553,0.48016 0.33544,0.42755 0.51927,0.59153 0.66353,0.59184 0.0384,9e-5 0.0699,0.0181 0.0699,0.0401 0,0.0243 -0.17982,0.04 -0.45957,0.04 -0.42021,0 -0.58115,-0.0388 -0.37956,-0.0915 0.0605,-0.0159 0.0728,-0.04 0.05,-0.0992 -0.0385,-0.10004 -0.57968,-0.80506 -0.61952,-0.80692 -0.0368,-0.002 -0.0325,0.61955 0.005,0.75789 0.0183,0.067 0.0696,0.11252 0.15586,0.13814 0.23578,0.0701 0.13305,0.10164 -0.33094,0.10164 -0.27973,0 -0.45957,-0.0156 -0.45957,-0.04 z m 2.19796,0 c 0,-0.022 0.0346,-0.04 0.0771,-0.04 0.0424,0 0.10533,-0.0283 0.13987,-0.0628 0.0542,-0.0542 0.0628,-0.22105 0.0628,-1.21746 0,-1.12824 -0.002,-1.15568 -0.0831,-1.19911 -0.0457,-0.0245 -0.10862,-0.0346 -0.13986,-0.0227 -0.0313,0.012 -0.0568,0.004 -0.0568,-0.0174 0,-0.0396 0.37564,-0.22045 0.54701,-0.26346 l 0.0924,-0.0232 v 0.6619 0.6619 l 0.0945,-0.0945 c 0.16487,-0.16486 0.42099,-0.27254 0.5933,-0.24943 0.19181,0.0257 0.26397,0.084 0.35665,0.28766 0.0598,0.13154 0.0728,0.26622 0.0736,0.7604 8.6e-4,0.65849 0.0353,0.77818 0.22294,0.77818 0.0537,0 0.0976,0.018 0.0976,0.04 0,0.0244 -0.1865,0.04 -0.47956,0.04 -0.45728,0 -0.6183,-0.0422 -0.359,-0.094 0.17055,-0.0341 0.19916,-0.14465 0.19916,-0.76975 0,-0.69183 -0.0535,-0.81465 -0.35494,-0.81465 -0.0597,0 -0.18416,0.049 -0.27647,0.10883 l -0.16785,0.10884 v 0.62762 c 0,0.68111 0.0213,0.75323 0.22264,0.75323 0.0534,0 0.097,0.018 0.097,0.04 0,0.0244 -0.18649,0.04 -0.47955,0.04 -0.29306,0 -0.47955,-0.0155 -0.47955,-0.04 z m 4.27604,0 c 0,-0.022 0.0332,-0.04 0.0737,-0.04 0.0406,0 0.10349,-0.0329 0.13987,-0.0731 0.0559,-0.0618 0.0661,-0.17535 0.0661,-0.73791 0,-0.63225 -0.004,-0.667 -0.083,-0.70926 -0.0457,-0.0245 -0.10862,-0.0346 -0.13988,-0.0227 -0.0312,0.012 -0.0568,0.004 -0.0568,-0.0174 0,-0.0396 0.37564,-0.22044 0.54701,-0.26345 0.0865,-0.0217 0.0924,-0.0116 0.0924,0.16109 v 0.18428 l 0.14209,-0.15728 c 0.21663,-0.23978 0.47746,-0.26578 0.57256,-0.0571 0.0386,0.0847 0.0359,0.12168 -0.0148,0.19905 -0.076,0.11599 -0.18363,0.12178 -0.2802,0.0151 -0.1105,-0.12211 -0.24748,-0.10199 -0.34012,0.05 -0.0694,0.11386 -0.0792,0.2022 -0.0793,0.71648 -1.5e-4,0.6368 0.0234,0.71219 0.2225,0.71219 0.0534,0 0.097,0.018 0.097,0.04 0,0.0244 -0.18649,0.04 -0.47955,0.04 -0.29307,0 -0.47956,-0.0155 -0.47956,-0.04 z m 4.79555,0 c 0,-0.022 0.0349,-0.04 0.0777,-0.04 0.0428,0 0.10566,-0.04 0.13987,-0.0888 0.0527,-0.0752 0.0622,-0.25828 0.0622,-1.1927 0,-1.03417 -0.005,-1.10822 -0.076,-1.17266 -0.0418,-0.0378 -0.10079,-0.0631 -0.13106,-0.0561 -0.0303,0.007 -0.0602,-0.003 -0.0665,-0.0236 -0.0106,-0.0334 0.47593,-0.2635 0.5573,-0.2635 0.0199,0 0.036,0.29641 0.036,0.66353 v 0.66353 l 0.14695,-0.12903 c 0.36252,-0.31829 0.73077,-0.31536 0.89529,0.007 0.0652,0.12767 0.0767,0.23726 0.0767,0.72548 0,0.66786 0.0365,0.8201 0.2044,0.85368 0.25081,0.0502 0.0923,0.093 -0.34427,0.093 -0.27974,0 -0.45957,-0.0156 -0.45957,-0.04 0,-0.022 0.0332,-0.04 0.0737,-0.04 0.0405,0 0.1035,-0.0329 0.13988,-0.0731 0.0556,-0.0615 0.0661,-0.17281 0.0661,-0.70117 0,-0.62162 -8.6e-4,-0.62914 -0.10293,-0.73103 -0.0864,-0.0864 -0.12844,-0.0995 -0.26127,-0.0817 -0.0871,0.0116 -0.22057,0.0687 -0.29668,0.12678 l -0.13837,0.10554 v 0.59741 c 0,0.54413 0.007,0.60454 0.0799,0.67734 0.044,0.044 0.1159,0.0799 0.15986,0.0799 0.044,0 0.0799,0.018 0.0799,0.04 0,0.0243 -0.17983,0.04 -0.45957,0.04 -0.27975,0 -0.45958,-0.0156 -0.45958,-0.04 z m 4.43588,0 c 0,-0.022 0.0359,-0.04 0.0799,-0.04 0.044,0 0.11589,-0.0359 0.15984,-0.0799 0.076,-0.076 0.0799,-0.1332 0.0799,-1.18153 0,-0.68294 -0.0157,-1.13098 -0.0414,-1.17891 -0.0233,-0.0435 -0.0833,-0.0773 -0.13751,-0.0773 -0.19275,0 -0.13349,-0.0733 0.14162,-0.17535 0.15489,-0.0574 0.29823,-0.10439 0.31854,-0.10439 0.0212,0 0.0415,0.38706 0.0477,0.90858 l 0.0108,0.90859 0.30972,-0.29424 c 0.3092,-0.29376 0.36289,-0.38607 0.24977,-0.42948 -0.15347,-0.0589 -0.0258,-0.0944 0.33968,-0.0944 0.23977,0 0.39963,0.0159 0.39963,0.04 0,0.022 -0.0421,0.04 -0.0936,0.04 -0.14583,0 -0.40004,0.15796 -0.66473,0.41306 l -0.24199,0.23322 0.26653,0.34623 c 0.36543,0.47469 0.56675,0.678 0.70048,0.70736 0.24276,0.0534 0.0932,0.0985 -0.32634,0.0985 -0.40035,0 -0.53704,-0.034 -0.37964,-0.0944 0.10609,-0.0407 0.0659,-0.12575 -0.24977,-0.52893 l -0.30972,-0.39552 -0.0115,0.36937 c -0.013,0.41897 0.0228,0.52183 0.19349,0.55598 0.25664,0.0514 0.0935,0.0935 -0.36184,0.0935 -0.29306,0 -0.47955,-0.0155 -0.47955,-0.04 z m 2.23792,0.005 c 0,-0.0192 0.0519,-0.0453 0.11531,-0.058 0.0841,-0.0168 0.12736,-0.0577 0.15985,-0.15083 0.049,-0.14037 0.0566,-2.02118 0.009,-2.19391 -0.0211,-0.0765 -0.0582,-0.10288 -0.1583,-0.11261 -0.0752,-0.007 -0.12433,-0.0319 -0.11568,-0.0578 0.0139,-0.0415 0.51735,-0.26909 0.59531,-0.26909 0.0186,0 0.0339,0.60115 0.0339,1.3359 0,1.16117 0.009,1.34411 0.0627,1.3987 0.0346,0.0346 0.0885,0.0628 0.11989,0.0628 0.0314,0 0.0571,0.018 0.0571,0.04 0,0.0242 -0.17317,0.04 -0.4396,0.04 -0.24177,0 -0.43959,-0.0157 -0.43959,-0.035 z m -28.97311,-3.98131 v -0.0999 h 12.84807 12.84808 v 0.0999 0.0999 h -12.84808 -12.84807 z m 1.3987,-1.81832 v -0.67937 l 0.26974,2.3e-4 c 0.36633,3e-4 0.54045,0.056 0.68338,0.21886 0.14808,0.16864 0.19637,0.42831 0.12624,0.67877 -0.0881,0.31459 -0.34148,0.46088 -0.79834,0.46088 h -0.28102 z m 0.66933,0.37818 c 0.12343,-0.0864 0.18417,-0.33657 0.13032,-0.53657 -0.0518,-0.19247 -0.16824,-0.2812 -0.36895,-0.2812 h -0.15096 v 0.43959 0.43959 h 0.15096 c 0.083,0 0.19041,-0.0277 0.23863,-0.0614 z m 1.72844,-0.37818 v -0.67937 h 0.37965 0.37965 v 0.11989 0.11989 h -0.23978 -0.23978 v 0.13987 0.13987 h 0.2198 c 0.21758,0 0.21979,8.6e-4 0.21979,0.11989 0,0.11868 -0.003,0.11989 -0.21979,0.11989 h -0.2198 v 0.17983 0.17983 h 0.23978 0.23978 v 0.1199 0.11988 h -0.37965 -0.37965 z m 2.29665,0.62942 c -0.0673,-0.17988 -0.41839,-1.25173 -0.41839,-1.27732 0,-0.0173 0.059,-0.0315 0.13121,-0.0315 h 0.13121 l 0.15782,0.52162 c 0.0868,0.28689 0.16651,0.49819 0.17711,0.46956 0.0106,-0.0286 0.0831,-0.25886 0.16102,-0.51163 l 0.14173,-0.45957 0.14668,-0.0122 0.14668,-0.0122 -0.22635,0.68162 -0.22635,0.68162 h -0.15184 c -0.0848,0 -0.16008,-0.0221 -0.17053,-0.0499 z m 1.93942,-0.62942 v -0.67937 h 0.37965 0.37965 v 0.11989 0.11989 h -0.23978 -0.23977 v 0.13987 0.13987 h 0.21979 c 0.21757,0 0.2198,8.6e-4 0.2198,0.11989 0,0.11868 -0.003,0.11989 -0.2198,0.11989 h -0.21979 v 0.17983 0.17983 h 0.23977 0.23978 v 0.1199 0.11988 h -0.37965 -0.37965 z m 2.03811,0 v -0.67937 h 0.13987 0.13987 v 0.55949 0.55947 h 0.25976 0.25976 v 0.1199 0.11988 h -0.39963 -0.39963 z m 2.31865,0.60937 c -0.22489,-0.11298 -0.3205,-0.29478 -0.3205,-0.60937 0,-0.21201 0.019,-0.29626 0.0907,-0.40371 0.24346,-0.36444 0.81397,-0.36444 1.05742,0 0.0718,0.10745 0.0907,0.1917 0.0907,0.40371 0,0.21202 -0.019,0.29625 -0.0907,0.40371 -0.1123,0.16811 -0.31843,0.27553 -0.52871,0.27553 -0.0879,0 -0.22243,-0.0315 -0.29892,-0.0699 z m 0.52428,-0.24617 c 0.0833,-0.0674 0.0943,-0.11 0.0943,-0.3632 0,-0.2532 -0.011,-0.29576 -0.0943,-0.3632 -0.16907,-0.13691 -0.4126,-0.0954 -0.50658,0.0863 -0.10969,0.21211 -0.043,0.62793 0.11054,0.68972 0.11475,0.0462 0.30756,0.022 0.39604,-0.0496 z m 1.67288,-0.3632 v -0.67937 h 0.30171 c 0.45135,0 0.61744,0.11166 0.61744,0.4151 0,0.29129 -0.18453,0.46409 -0.49559,0.46409 h -0.14382 v 0.23977 0.23978 h -0.13987 -0.13987 z m 0.59145,-0.0879 c 0.0264,-0.0264 0.0479,-0.0947 0.0479,-0.15186 0,-0.13932 -0.069,-0.19981 -0.22779,-0.19981 -0.13161,0 -0.13188,4.1e-4 -0.13188,0.19981 0,0.19941 3e-4,0.19982 0.13188,0.19982 0.0725,0 0.15346,-0.0216 0.17984,-0.0479 z m 1.60651,0.0879 v -0.67937 h 0.37965 0.37965 v 0.11989 0.11989 h -0.23978 -0.23978 v 0.13987 0.13987 h 0.2198 c 0.21757,0 0.2198,8.6e-4 0.2198,0.11989 0,0.11868 -0.003,0.11989 -0.2198,0.11989 h -0.2198 v 0.17983 0.17983 h 0.23978 0.23978 v 0.1199 0.11988 h -0.37965 -0.37965 z m 2.03811,0.005 v -0.68437 h 0.29126 c 0.53248,0 0.78754,0.21803 0.78768,0.67332 1.3e-4,0.45793 -0.21114,0.64989 -0.74616,0.67797 l -0.33278,0.0175 z m 0.68245,0.31777 c 0.0954,-0.0954 0.11681,-0.15063 0.11681,-0.30171 0,-0.20307 -0.0809,-0.39718 -0.18163,-0.43583 -0.0356,-0.0136 -0.12616,-0.0248 -0.20129,-0.0248 h -0.1366 v 0.43959 0.43959 h 0.14294 c 0.10471,0 0.1742,-0.0312 0.25977,-0.11682 z m 3.15399,-0.3188 v -0.68334 h 0.27377 c 0.31348,0 0.50986,0.0559 0.5663,0.16142 0.0701,0.13098 0.0434,0.28922 -0.0683,0.40586 -0.0591,0.0616 -0.086,0.11209 -0.0599,0.11209 0.0261,0 0.0834,0.0359 0.12737,0.0799 0.11222,0.11223 0.10466,0.32644 -0.0165,0.46734 -0.0903,0.10507 -0.11928,0.11301 -0.45957,0.12609 l -0.36315,0.014 z m 0.70472,0.45501 c 0.084,-0.11482 0.0676,-0.28549 -0.0342,-0.35681 -0.0532,-0.0372 -0.17352,-0.0622 -0.29973,-0.0622 h -0.2109 v 0.26456 0.26457 l 0.24515,-0.0178 c 0.17908,-0.0129 0.25985,-0.0378 0.29971,-0.0924 z m -0.0742,-0.60112 c 0.1049,-0.0735 0.11961,-0.26211 0.0265,-0.33943 -0.0343,-0.0285 -0.16018,-0.0599 -0.27974,-0.0698 l -0.21737,-0.018 v 0.24473 0.24473 h 0.19092 c 0.10812,0 0.22945,-0.027 0.27975,-0.0622 z m 1.84718,0.55595 c 0,-0.24587 -0.0165,-0.29619 -0.22197,-0.67936 -0.19568,-0.36481 -0.21258,-0.41382 -0.14267,-0.41382 0.0583,0 0.12444,0.0847 0.24965,0.3197 0.0937,0.17584 0.18037,0.31969 0.19262,0.31966 0.0122,-2e-5 0.0999,-0.14388 0.19484,-0.3197 0.12489,-0.23135 0.1941,-0.31966 0.25052,-0.31966 0.0681,0 0.0501,0.0522 -0.14259,0.41299 -0.20405,0.38211 -0.22054,0.43291 -0.22054,0.67937 0,0.23973 -0.008,0.26638 -0.0799,0.26638 -0.0719,0 -0.0799,-0.0266 -0.0799,-0.26556 z"
         id="path4" /></g></g></svg>
